<?xml version="1.0" standalone="no"?>
<!DOCTYPE svg PUBLIC "-//W3C//DTD SVG 20010904//EN"
 "http://www.w3.org/TR/2001/REC-SVG-20010904/DTD/svg10.dtd">
<svg version="1.0" xmlns="http://www.w3.org/2000/svg"
 width="50.000000pt" height="50.000000pt" viewBox="0 0 512.000000 512.000000"
 preserveAspectRatio="xMidYMid meet">

<g transform="translate(0.000000,512.000000) scale(0.100000,-0.100000)"
fill="#000000" stroke="none">
<path d="M0 5037 l0 -83 87 -97 c47 -54 108 -113 135 -133 31 -21 64 -58 86
-96 20 -33 50 -76 66 -95 20 -23 26 -37 19 -44 -7 -7 -26 14 -59 68 -33 53
-93 122 -187 216 -141 140 -203 184 -85 60 35 -37 82 -90 104 -118 57 -70 166
-261 162 -282 -2 -12 -14 -19 -35 -21 -28 -3 -41 7 -118 86 -47 50 -105 116
-128 148 l-42 59 -3 -43 c-3 -37 1 -46 31 -75 19 -17 36 -37 38 -43 2 -6 37
-31 77 -57 41 -26 76 -57 82 -71 12 -33 23 -38 59 -25 23 8 47 8 84 1 29 -6
54 -9 56 -7 2 2 -13 18 -32 35 -20 17 -70 83 -112 145 -42 63 -80 117 -85 120
-6 4 -10 11 -10 17 0 21 43 -28 95 -107 28 -44 77 -107 108 -140 32 -33 57
-63 57 -67 0 -4 26 -6 58 -3 31 2 100 5 154 7 l96 3 -14 33 c-20 49 -53 92
-70 92 -27 0 -132 100 -153 145 -11 24 -33 59 -49 77 -46 53 -107 139 -138
193 -36 64 -25 56 128 -95 112 -111 179 -170 192 -170 10 0 -60 92 -93 123
-32 29 -39 51 -21 62 19 12 49 -16 86 -82 43 -78 244 -366 251 -359 2 2 -7 22
-21 44 -14 22 -28 53 -32 69 -4 15 -24 49 -43 75 -20 26 -53 70 -74 97 -40 54
-107 167 -107 183 0 5 9 6 21 3 19 -6 20 -5 9 14 -6 12 -24 40 -39 64 -16 23
-31 53 -33 67 -3 14 -9 33 -13 43 -13 32 20 19 58 -23 l36 -40 3 32 3 33 33
-47 c41 -59 64 -64 27 -5 -14 23 -31 54 -38 70 -11 27 -12 27 -105 27 l-94 0
27 -31 c31 -37 89 -149 81 -156 -8 -9 -64 55 -62 71 0 8 -17 37 -39 65 l-40
51 -217 0 -218 0 0 -83z m395 23 c3 -5 -3 -10 -14 -10 -12 0 -21 5 -21 10 0 6
6 10 14 10 8 0 18 -4 21 -10z m65 -92 c0 -13 -23 -5 -28 10 -2 7 2 10 12 6 9
-3 16 -11 16 -16z"/>
<path d="M692 5093 c7 -16 27 -45 45 -67 17 -21 39 -55 49 -75 9 -20 39 -75
66 -123 27 -48 47 -91 44 -96 -3 -5 2 -18 10 -28 14 -18 15 -15 11 33 -4 50
-43 147 -77 188 -30 37 -71 115 -60 115 6 0 14 -8 18 -17 4 -10 32 -56 63
-103 31 -47 61 -106 69 -133 7 -26 16 -50 21 -53 4 -2 3 9 -3 26 -17 51 -4 43
37 -20 21 -33 42 -60 47 -60 17 0 7 43 -20 83 -49 72 -104 177 -93 177 6 0 11
-6 11 -14 0 -8 4 -16 9 -18 9 -3 105 -158 146 -236 11 -20 29 -47 40 -60 11
-12 23 -32 26 -45 5 -20 10 -22 74 -19 58 3 73 7 92 28 33 36 29 48 -12 41
-34 -6 -35 -5 -45 36 -22 87 -56 164 -98 226 -62 90 -63 103 -2 46 37 -35 64
-74 92 -133 22 -46 42 -82 44 -79 12 12 -80 196 -106 212 -18 11 -11 25 13 26
17 0 12 4 -17 16 l-39 16 44 14 c24 7 50 13 56 13 16 0 103 -172 103 -204 0
-14 5 -28 11 -31 7 -5 8 12 3 53 -4 40 -3 62 5 66 6 4 13 1 15 -6 2 -7 12 -43
24 -80 16 -56 18 -68 6 -68 -8 0 -14 -6 -14 -12 1 -24 50 -182 60 -192 19 -19
9 -26 -40 -26 -27 0 -50 -4 -50 -10 0 -5 -16 -10 -35 -10 -24 0 -35 5 -35 15
0 17 -20 19 -70 5 -19 -5 -65 -11 -102 -13 l-67 -4 -25 51 c-27 57 -55 97 -56
79 0 -17 79 -185 97 -205 23 -26 37 -22 19 4 -38 53 -2 57 54 6 38 -34 58 -43
121 -52 50 -7 140 -72 188 -135 l26 -34 -24 13 c-14 7 -45 31 -70 54 -82 73
-90 79 -139 89 -26 5 -85 12 -132 15 l-84 7 -16 52 c-8 29 -21 58 -29 65 -11
11 -13 7 -7 -27 3 -22 9 -51 13 -64 4 -18 2 -22 -8 -19 -7 2 -16 18 -20 34 -6
33 -29 78 -35 71 -3 -2 0 -16 5 -31 17 -43 -5 -30 -51 30 -23 31 -44 52 -45
47 -4 -12 77 -133 89 -133 4 0 8 -5 8 -11 0 -5 -4 -8 -9 -4 -5 3 -34 -6 -65
-20 -30 -14 -67 -30 -82 -36 -16 -5 -64 -31 -107 -57 -96 -57 -185 -153 -226
-244 -43 -95 -45 -113 -19 -148 l21 -30 22 63 c37 104 61 141 140 215 79 74
90 81 98 60 2 -7 3 -5 1 5 -1 10 5 21 14 24 9 3 25 13 34 20 22 20 38 8 38
-28 0 -19 -6 -32 -17 -36 -10 -4 -24 -15 -31 -25 -7 -10 -24 -18 -36 -18 -13
0 -29 -6 -35 -14 -7 -8 -27 -17 -45 -20 -30 -6 -62 -31 -80 -64 -6 -9 -1 -11
19 -8 58 11 131 39 147 57 22 25 33 24 46 -6 10 -22 9 -25 -11 -27 -28 -1 -38
-3 -57 -11 -8 -3 -26 -8 -40 -11 -42 -9 -63 -30 -56 -54 11 -32 40 -36 103
-12 31 11 62 19 68 16 14 -5 26 -66 13 -66 -4 0 -16 5 -26 11 -15 9 -31 5 -86
-20 -77 -37 -162 -112 -133 -119 9 -2 41 10 70 26 28 16 73 37 100 47 45 17
48 17 67 0 11 -10 17 -22 13 -26 -8 -8 -123 -71 -210 -116 -37 -19 -55 -36
-63 -56 -9 -26 -12 -28 -26 -16 -28 23 -44 75 -44 141 0 54 -2 60 -13 43 -8
-10 -18 -15 -23 -12 -6 4 -7 -25 -2 -76 7 -66 17 -99 50 -167 23 -47 41 -90
41 -97 0 -7 2 -11 5 -8 2 2 13 -6 23 -18 10 -12 18 -18 19 -14 0 5 12 0 28
-11 37 -26 127 -67 193 -87 38 -11 91 -16 183 -16 71 0 134 -3 140 -8 17 -13
96 -21 96 -9 0 14 43 5 48 -11 3 -10 -2 -12 -22 -7 -20 5 -26 3 -26 -9 0 -39
-83 -33 -93 6 -5 17 -16 19 -105 19 -55 0 -137 7 -182 16 -90 17 -134 15 -89
-4 15 -6 29 -16 31 -23 2 -7 24 -15 49 -18 46 -6 60 -24 22 -29 -31 -4 -29
-13 8 -37 17 -11 55 -60 85 -110 87 -143 88 -144 169 -113 44 17 55 25 55 43
0 32 -23 40 -110 40 -59 0 -75 3 -75 15 0 9 16 18 45 23 24 5 58 20 74 33 27
24 29 24 48 7 16 -15 21 -15 28 -3 5 8 12 11 17 7 4 -5 1 -12 -7 -17 -12 -7
-12 -12 -2 -22 6 -6 12 -26 12 -42 0 -37 19 -73 21 -41 1 11 0 30 -1 42 -2 33
25 66 93 114 58 39 97 73 97 82 0 2 -25 30 -55 63 -30 32 -60 74 -66 92 -9 28
-15 33 -33 28 -44 -13 -273 -19 -280 -8 -4 6 2 29 14 51 25 50 25 63 1 85 -13
12 -21 14 -26 6 -4 -6 1 -17 10 -24 17 -12 17 -14 0 -39 -9 -15 -21 -27 -25
-27 -4 0 -12 18 -19 40 -6 22 -17 40 -22 40 -6 0 -8 -7 -5 -16 14 -37 18 -64
8 -64 -6 0 -14 15 -17 33 -4 17 -14 40 -22 49 -16 18 -128 58 -161 58 -11 0
-26 7 -33 16 -12 15 -10 16 19 10 23 -6 32 -4 33 6 1 7 2 24 2 38 2 19 13 31
47 48 81 41 120 9 58 -47 -25 -22 -30 -33 -22 -41 13 -13 54 -5 54 11 0 5 7 9
15 9 17 0 20 -16 5 -25 -14 -9 -12 -19 9 -43 26 -31 43 -27 80 18 35 44 51 50
51 20 0 -13 9 -22 27 -26 41 -11 65 11 78 69 3 15 10 27 16 27 6 0 9 -6 6 -14
-3 -8 18 -51 46 -96 50 -79 54 -83 92 -86 43 -3 188 45 238 79 15 10 37 37 50
60 19 38 22 56 21 177 -1 134 -9 177 -59 293 -16 38 13 14 37 -30 24 -45 31
-70 57 -185 15 -65 13 -173 -3 -236 -13 -47 -13 -53 0 -50 9 2 27 24 41 50 23
43 25 52 15 85 -14 48 -22 173 -11 173 4 0 13 -18 19 -41 6 -22 19 -54 29 -70
l19 -31 15 22 c9 12 20 19 26 15 6 -3 15 5 21 19 5 14 15 26 21 26 13 0 110
59 120 72 3 5 16 11 29 13 13 2 28 9 33 14 5 5 20 3 38 -6 21 -10 33 -11 46
-4 14 8 15 10 3 11 -58 1 -158 153 -215 330 -43 130 -66 170 -99 170 -22 0
-46 33 -46 63 0 7 -15 48 -34 92 -18 44 -37 91 -41 105 -6 22 -6 23 8 10 9 -8
29 -51 46 -95 46 -124 64 -162 68 -143 2 9 -3 30 -12 47 -22 44 -65 165 -65
187 0 11 -7 28 -15 38 -8 11 -15 34 -15 52 0 25 8 39 37 63 41 34 61 38 83 19
8 -7 1 3 -17 22 -17 19 -45 65 -62 103 l-30 67 -192 0 c-178 0 -191 -1 -184
-17 30 -75 60 -197 47 -189 -12 7 -60 117 -72 164 -9 34 -15 42 -34 42 -23 0
-23 -1 -9 -41 19 -57 11 -59 -23 -5 l-29 45 -167 1 c-155 0 -167 -1 -161 -17
3 -10 10 -23 15 -30 6 -7 8 -18 6 -24 -2 -6 -12 7 -22 30 l-19 41 -68 0 -69 0
12 -27z m206 -118 c-3 -3 -9 2 -12 12 -6 14 -5 15 5 6 7 -7 10 -15 7 -18z
m613 -415 c17 -36 42 -86 55 -112 50 -98 13 -81 -43 20 -49 87 -80 154 -87
187 l-7 30 25 -30 c14 -16 39 -59 57 -95z m49 -11 c0 -6 -4 -7 -10 -4 -5 3
-10 11 -10 16 0 6 5 7 10 4 6 -3 10 -11 10 -16z m140 -37 c0 -5 -17 -12 -37
-15 -21 -3 -53 -9 -70 -12 -28 -6 -33 -5 -33 12 0 17 8 19 70 21 39 2 70 -1
70 -6z m-210 -33 c8 -4 26 -28 39 -54 19 -36 22 -48 12 -58 -14 -13 -31 4 -63
62 -11 20 -25 31 -38 31 -20 0 -21 -4 -15 -40 6 -36 5 -40 -14 -40 -25 0 -27
4 -35 62 l-7 47 53 -1 c29 0 60 -4 68 -9z m-240 -19 c0 -11 -4 -20 -10 -20 -5
0 -10 9 -10 20 0 11 5 20 10 20 6 0 10 -9 10 -20z m576 -213 c9 -27 14 -50 12
-53 -9 -9 -58 95 -58 122 l1 29 14 -25 c8 -14 22 -47 31 -73z m-76 63 c0 -5
-4 -10 -9 -10 -6 0 -13 5 -16 10 -3 6 1 10 9 10 9 0 16 -4 16 -10z m-671 -37
l30 -38 1 33 c0 37 9 40 35 12 10 -11 35 -25 55 -30 53 -14 86 -44 136 -122
24 -37 44 -70 44 -72 0 -3 -8 -5 -17 -5 -10 1 -29 -2 -43 -6 -21 -5 -22 -5 -7
5 22 14 22 32 -2 79 -33 63 -53 71 -203 74 -132 4 -133 4 -95 -13 53 -24 61
-35 59 -74 -2 -19 8 -59 23 -91 14 -32 25 -72 25 -90 0 -29 -4 -33 -32 -39
-40 -8 -71 16 -49 36 11 10 14 10 18 1 8 -22 23 -14 23 12 0 30 -26 46 -57 34
-18 -6 -25 -4 -33 11 -18 33 -11 58 23 85 l32 26 -40 34 c-22 18 -42 31 -45
28 -3 -3 1 -8 8 -10 7 -3 17 -14 23 -25 8 -16 6 -23 -12 -38 -12 -11 -26 -17
-30 -14 -20 12 -20 -29 1 -71 12 -24 19 -49 16 -54 -9 -15 32 -88 61 -109 l26
-19 -24 -33 -24 -32 23 -15 c12 -9 22 -23 22 -33 0 -30 -13 -30 -31 0 -14 23
-26 30 -49 30 -33 0 -33 3 -14 96 2 14 -2 24 -12 28 -12 5 -15 14 -10 36 5 28
3 30 -22 30 -16 0 -33 -5 -40 -12 -9 -9 -12 -9 -12 0 0 7 10 22 21 33 17 17
20 29 16 61 -6 48 -22 67 -39 50 -22 -22 -32 -12 -10 11 26 28 28 44 6 68 -22
24 -12 36 39 43 37 6 45 11 55 39 11 30 63 67 70 50 1 -5 7 -15 12 -23 15 -24
25 -1 13 30 -15 41 -1 38 36 -7z m-167 7 c18 0 24 -26 10 -46 -4 -5 -24 -18
-46 -28 -45 -21 -59 -13 -54 35 2 26 8 34 23 34 15 0 20 -7 20 -27 0 -39 11
-43 19 -7 4 19 1 38 -6 48 -10 13 -10 14 2 4 8 -7 22 -13 32 -13z m58 11 c0
-6 -4 -13 -10 -16 -5 -3 -10 1 -10 9 0 9 5 16 10 16 6 0 10 -4 10 -9z m789
-11 c-8 -4 -54 -10 -104 -13 -69 -5 -96 -3 -115 8 -23 13 -15 15 88 14 62 -1
116 2 119 5 3 3 10 3 16 -1 6 -3 4 -9 -4 -13z m-619 -108 c0 -14 -11 -21 -26
-15 -21 8 -17 23 6 23 11 0 20 -4 20 -8z m374 -72 c21 -52 21 -84 1 -77 -8 4
-17 2 -20 -3 -11 -17 -33 -11 -41 12 -6 20 -7 21 -19 4 -12 -16 -15 -13 -34
29 -12 26 -21 51 -21 56 0 9 30 16 81 18 34 1 38 -2 53 -39z m-339 -42 c-11
-57 -16 -68 -26 -63 -5 4 -9 26 -9 51 0 38 3 44 21 44 18 0 20 -4 14 -32z
m114 -22 c-12 -10 -60 -16 -54 -6 3 5 18 10 32 10 15 0 24 -2 22 -4z m89 -32
c2 -14 -5 -24 -24 -33 -37 -16 -114 -26 -114 -14 0 24 88 75 120 70 8 -1 16
-11 18 -23z m28 -106 c24 -108 -12 -192 -87 -204 -22 -4 -36 -11 -33 -18 2 -6
-12 -30 -30 -54 l-35 -43 -15 23 c-8 13 -18 35 -21 50 -6 21 -2 30 19 43 14
10 42 39 62 66 19 27 53 58 75 71 47 26 45 37 -3 12 -41 -21 -158 -132 -158
-151 0 -19 -13 -16 -26 5 -9 14 -8 22 2 37 16 22 18 61 4 70 -5 3 -18 0 -28
-6 -11 -7 -30 -9 -48 -5 -25 7 -26 9 -11 17 9 6 17 19 17 29 0 21 15 27 25 10
10 -16 25 -1 25 24 0 39 49 56 162 56 l96 0 8 -32z m414 28 c0 -3 -4 -8 -10
-11 -5 -3 -10 -1 -10 4 0 6 5 11 10 11 6 0 10 -2 10 -4z m-920 -50 c0 -3 -4
-8 -10 -11 -5 -3 -10 -1 -10 4 0 6 5 11 10 11 6 0 10 -2 10 -4z m-70 -16 c0
-5 -4 -10 -10 -10 -5 0 -10 5 -10 10 0 6 5 10 10 10 6 0 10 -4 10 -10z m69
-82 c-12 -21 -13 -21 -17 -4 -2 10 2 22 9 27 20 12 22 4 8 -23z m51 -79 c0 -5
-4 -9 -10 -9 -5 0 -10 7 -10 16 0 8 5 12 10 9 6 -3 10 -10 10 -16z m-330 -48
c0 -35 24 -53 81 -57 90 -8 113 -19 137 -69 29 -60 29 -78 0 -69 -76 23 -203
105 -223 143 -17 34 -21 86 -5 76 6 -3 10 -14 10 -24z m674 -307 c16 -19 27
-37 24 -39 -2 -3 -20 4 -39 14 -46 25 -95 35 -104 22 -8 -13 -25 -14 -25 -2 0
5 13 12 30 16 16 4 32 11 35 16 13 19 51 6 79 -27z m-226 -83 c5 -33 -18 -45
-43 -21 -12 11 -38 20 -63 22 -74 5 -49 25 31 24 68 -1 72 -2 75 -25z m-53
-113 c5 -4 -4 -8 -21 -8 -16 0 -35 -5 -41 -11 -8 -8 -14 -6 -22 9 -21 39 41
47 84 10z"/>
<path d="M1400 4110 c0 -5 18 -10 41 -10 24 0 38 4 34 10 -3 6 -22 10 -41 10
-19 0 -34 -4 -34 -10z"/>
<path d="M1210 3865 c-16 -9 -19 -14 -9 -15 8 0 24 7 35 15 24 18 7 19 -26 0z"/>
<path d="M1716 5078 c8 -23 28 -66 44 -96 17 -31 30 -63 30 -73 0 -10 4 -20 8
-23 5 -3 14 -31 21 -63 7 -32 26 -86 42 -120 16 -35 29 -67 29 -73 0 -6 10 -8
23 -5 39 10 53 -17 33 -65 -9 -24 -16 -69 -16 -111 0 -69 24 -195 41 -214 5
-5 9 -19 9 -32 0 -46 68 -161 124 -211 40 -35 43 -42 20 -42 -29 0 -173 -79
-243 -132 -140 -108 -314 -253 -414 -344 -56 -51 -108 -94 -114 -94 -7 0 -13
8 -13 19 0 10 -6 24 -14 30 -8 7 -18 26 -21 42 -6 27 -35 42 -35 18 0 -43 122
-179 161 -179 11 0 19 -2 19 -5 0 -3 -20 -47 -44 -98 -24 -50 -58 -132 -74
-182 -40 -117 -110 -368 -118 -422 -4 -28 -12 -43 -21 -43 -16 0 -19 -15 33
220 19 85 46 183 59 217 22 54 32 103 21 103 -2 0 -24 -9 -50 -21 -34 -15 -50
-29 -61 -55 -7 -18 -20 -34 -28 -34 -40 0 -110 -325 -105 -480 l3 -84 79 1
c46 1 75 -2 69 -8 -5 -5 -36 -9 -68 -10 -111 -4 -119 -2 -134 31 -16 37 -94
79 -151 83 -34 2 -40 5 -40 25 0 27 29 30 66 5 24 -16 29 -15 80 2 30 10 54
19 55 19 0 1 4 39 9 86 4 47 14 124 20 172 7 48 10 94 7 102 -3 8 -21 18 -40
21 -46 9 -114 81 -161 170 -21 39 -49 81 -64 94 -24 22 -32 23 -107 18 -89 -5
-280 -40 -253 -45 10 -2 18 -7 17 -10 0 -4 -37 -38 -81 -76 -91 -78 -128 -130
-159 -223 -20 -61 -23 -65 -48 -59 -14 3 -48 10 -76 15 -27 5 -58 12 -67 16
-14 6 -18 2 -18 -18 0 -23 5 -27 44 -32 61 -9 87 -10 117 -1 26 7 26 7 32 -57
7 -71 33 -147 74 -208 21 -32 44 -49 100 -75 73 -34 128 -44 135 -23 6 17 68
-18 68 -38 0 -13 -8 -15 -52 -10 -29 4 -63 9 -75 13 -49 14 -19 -15 46 -45 52
-24 86 -32 136 -34 43 -2 69 -8 75 -17 7 -11 15 -12 47 -2 21 7 70 14 109 16
40 2 78 7 85 12 7 4 33 7 58 5 26 -1 81 5 125 13 l79 16 29 -25 c16 -14 42
-28 56 -31 15 -3 39 -10 54 -16 14 -5 37 -8 50 -6 l23 4 -25 11 c-48 20 -64
63 -24 63 8 0 14 5 14 10 0 6 9 10 21 10 20 0 21 -7 2 -57 -7 -19 38 -32 123
-38 l74 -4 0 29 c0 36 -40 160 -51 160 -4 0 -12 -6 -16 -14 -9 -14 -72 -50
-79 -44 -2 2 1 20 6 40 9 31 16 38 55 49 25 7 45 19 45 26 0 16 -15 16 -65 -2
-21 -8 -41 -12 -44 -10 -2 3 0 5 6 5 18 0 80 55 76 67 -2 6 1 14 6 18 6 3 11
13 11 22 0 12 -7 14 -35 9 -19 -4 -35 -5 -35 -3 0 6 61 121 69 130 7 7 41
-193 61 -363 6 -47 18 -117 26 -157 15 -66 15 -97 0 -201 -6 -46 -16 -53 -16
-11 -1 19 -7 45 -15 59 -8 14 -15 48 -15 75 0 28 -3 60 -6 73 l-6 22 -317 0
c-206 0 -321 4 -327 10 -8 8 -19 7 -39 0 -31 -12 -48 -4 -25 10 10 7 -5 9 -45
8 -39 -1 -48 -3 -25 -5 19 -3 39 -8 43 -13 12 -11 -308 -24 -376 -16 -87 11
-196 8 -280 -9 -43 -8 -103 -15 -133 -15 l-54 0 0 -51 c0 -49 1 -51 22 -45 13
4 63 11 113 16 50 4 113 11 142 15 l51 7 7 -46 c4 -26 6 -48 4 -50 -2 -2 -60
-17 -127 -35 -132 -33 -197 -39 -205 -18 -3 6 -6 -19 -6 -57 -1 -61 1 -67 17
-61 21 9 153 45 166 45 5 0 3 -7 -4 -15 -15 -19 -2 -20 19 -2 9 8 43 20 76 27
85 19 87 21 79 104 -3 39 -6 79 -6 88 1 10 -3 18 -9 18 -5 0 -9 15 -9 34 0 28
4 34 25 38 14 3 27 2 30 -2 2 -4 25 -132 50 -284 25 -153 47 -283 48 -289 1
-7 -4 -11 -10 -10 -19 4 -15 -28 6 -51 12 -14 24 -55 35 -121 9 -55 20 -103
25 -108 4 -4 31 -10 59 -14 l52 -6 0 -67 c0 -77 15 -103 74 -135 21 -12 36
-27 36 -38 0 -10 11 -28 25 -41 14 -13 25 -28 25 -34 0 -7 35 -11 98 -11 53 0
113 -5 132 -11 41 -12 100 -13 118 -2 23 15 -49 29 -128 25 -52 -2 -70 0 -60
7 8 5 22 10 31 10 9 0 22 7 29 15 7 8 20 15 29 15 14 -1 14 -2 -1 -14 -26 -19
-22 -30 3 -12 12 8 29 27 38 42 14 24 24 28 69 30 57 2 57 2 33 -76 l-8 -25
156 0 156 1 10 35 c5 20 18 46 28 60 l18 24 -6 -30 c-3 -16 -8 -54 -12 -83
l-6 -54 -351 4 c-306 3 -355 5 -377 19 -28 19 -45 14 -91 -29 l-28 -26 0 27
c0 18 9 31 30 44 17 9 30 23 30 30 0 17 -8 16 -43 -2 -25 -13 -29 -13 -34 1
-3 8 2 23 11 33 20 22 20 31 1 31 -20 0 -65 92 -65 134 0 51 -8 64 -34 59 -43
-9 -136 53 -136 89 0 17 -2 17 -22 4 -13 -8 -53 -26 -90 -40 -37 -13 -91 -41
-120 -60 -64 -44 -96 -45 -165 -7 l-52 29 0 -99 c0 -86 3 -99 17 -99 16 -1 16
-2 0 -14 -15 -11 -18 -31 -18 -135 0 -123 9 -152 26 -84 8 32 15 40 47 50 21
7 55 26 75 42 69 54 116 46 57 -9 -14 -13 -25 -29 -25 -37 0 -18 25 -17 40 2
14 16 40 20 40 6 0 -25 -108 -70 -121 -50 -8 14 -75 4 -85 -13 -8 -13 15 -28
33 -21 7 3 13 -2 13 -11 0 -23 27 -20 33 4 6 22 29 28 26 7 -4 -33 2 -37 60
-37 33 0 62 -4 65 -9 4 -5 -17 -9 -46 -9 -106 0 -141 -12 -192 -68 l-46 -52 0
-118 1 -119 21 29 c12 16 36 35 55 42 18 8 33 20 33 28 0 7 7 19 15 26 13 10
13 15 3 21 -8 5 -4 11 15 18 16 6 34 11 41 11 8 0 32 18 55 40 42 41 68 55 36
20 -34 -38 -4 -34 33 4 31 31 33 37 15 31 -14 -4 -23 -2 -23 4 0 7 23 9 61 7
42 -2 72 2 93 12 17 9 54 17 81 17 151 4 164 6 184 23 12 9 24 32 26 50 3 27
1 32 -16 32 -12 0 -41 19 -65 43 l-43 43 -3 100 -3 101 -30 -8 c-16 -4 -52
-15 -80 -25 -38 -13 -45 -19 -30 -24 25 -9 11 -16 -48 -24 -39 -6 -50 -12 -63
-38 -11 -22 -18 -27 -24 -18 -11 18 -32 2 -25 -19 4 -14 -1 -17 -30 -17 -19 0
-35 3 -35 8 0 10 72 58 87 58 7 0 13 6 13 13 0 17 36 38 53 31 8 -3 35 9 60
26 25 17 63 37 84 44 l38 13 0 62 c0 33 3 61 6 61 10 0 19 -40 19 -82 0 -20 6
-41 13 -45 18 -11 33 -67 36 -133 1 -30 9 -65 17 -78 23 -34 73 -62 97 -53 11
4 41 4 66 -1 56 -11 213 -15 599 -17 193 -1 291 -4 287 -11 -3 -5 -16 -10 -27
-10 -13 0 -41 -20 -69 -51 -51 -55 -80 -60 -54 -9 18 35 18 40 3 40 -6 0 -26
-16 -44 -36 -35 -38 -66 -39 -39 -1 30 43 23 46 -122 48 -191 3 -323 2 -354
-3 -24 -4 -89 -57 -89 -72 0 -10 38 -7 64 5 14 7 26 19 28 28 3 14 23 16 168
13 197 -4 241 -22 59 -23 -68 -1 -136 0 -151 1 -30 2 -74 -18 -63 -28 4 -4 88
-7 188 -8 100 -1 225 -5 277 -10 111 -11 121 -22 71 -84 -16 -21 -36 -59 -42
-85 -11 -43 -10 -49 6 -61 37 -27 59 -17 77 34 25 70 40 86 71 78 32 -8 56
-51 58 -103 2 -30 3 -32 6 -10 5 30 24 35 44 11 7 -8 26 -22 43 -31 17 -9 53
-33 81 -55 57 -45 80 -32 25 14 -30 24 -31 28 -15 34 12 5 20 3 23 -5 9 -26
64 -80 110 -107 27 -16 78 -33 121 -41 41 -7 76 -15 79 -18 15 -14 -16 -15
-120 -4 -109 12 -148 10 -148 -9 0 -5 57 -14 128 -21 70 -7 165 -16 212 -22
83 -9 410 -12 480 -4 19 2 80 11 135 19 55 9 115 16 133 16 30 0 32 2 22 20
-8 15 -15 18 -28 11 -24 -13 -169 -25 -157 -14 6 6 41 17 79 27 50 11 78 24
98 45 15 15 48 34 72 41 25 7 47 18 50 26 7 18 36 18 36 0 0 -8 -4 -18 -10
-21 -5 -3 -9 -18 -9 -33 1 -17 3 -21 6 -9 2 9 9 17 14 17 11 0 12 -30 1 -47
-4 -6 -31 -15 -59 -19 -53 -7 -84 -34 -40 -34 13 0 28 -5 35 -12 8 -8 15 -8
27 2 21 18 32 4 41 -46 5 -37 4 -43 -15 -49 -12 -4 -28 -2 -34 4 -9 7 -16 5
-25 -10 -10 -16 -24 -19 -78 -19 l-66 0 5 -29 c4 -21 2 -31 -9 -35 -20 -8 -29
20 -16 49 6 12 8 26 5 29 -10 10 -123 7 -123 -4 0 -5 7 -28 16 -50 19 -46 13
-70 -15 -70 -17 0 -20 5 -15 29 4 16 1 44 -5 63 l-11 33 -350 0 c-192 0 -350
-2 -350 -5 0 -3 32 -12 71 -19 56 -10 73 -10 79 -1 9 15 53 3 47 -13 -6 -18
-179 -11 -193 8 -6 8 -14 11 -18 7 -5 -4 -6 2 -4 13 3 18 -3 20 -47 20 -48 0
-50 -1 -47 -26 2 -19 -4 -31 -22 -43 -31 -20 -46 -20 -60 -1 -8 10 -15 12 -26
5 -13 -9 -12 -12 4 -25 11 -9 19 -27 19 -44 0 -27 4 -29 46 -35 25 -3 98 -9
162 -12 l116 -6 7 26 c3 14 13 26 20 26 16 0 42 -23 48 -42 4 -10 8 -10 22 1
12 10 34 12 86 7 57 -5 70 -4 70 8 0 27 19 27 41 2 17 -20 26 -23 40 -15 10 5
46 8 79 6 56 -3 61 -2 66 20 8 31 20 29 40 -8 14 -27 19 -30 46 -25 17 3 65 6
107 6 84 0 127 17 104 41 -34 35 2 74 57 63 34 -7 47 -29 61 -99 6 -36 7 -33
7 25 0 94 0 93 18 86 8 -3 25 1 38 9 28 19 36 11 36 -32 l0 -34 53 6 52 6 -33
-17 c-30 -16 -33 -20 -30 -58 l3 -41 47 -3 46 -3 -18 78 c-20 92 -46 160 -70
188 -30 35 -39 59 -29 78 11 20 4 37 -16 37 -8 0 -15 16 -18 43 -3 23 -7 51
-9 62 -2 16 7 23 53 39 48 17 59 26 79 62 28 54 57 81 71 67 5 -5 18 -32 27
-59 18 -48 18 -49 65 -52 26 -2 47 1 47 6 0 27 -37 93 -77 135 -55 59 -54 81
5 85 45 3 52 12 26 33 -8 7 -22 25 -29 40 -9 17 -24 28 -44 31 -26 4 -28 2
-18 -14 6 -9 24 -23 39 -29 32 -13 36 -24 12 -33 -37 -14 -52 -6 -70 39 -13
30 -26 46 -43 50 -31 8 -37 0 -23 -30 20 -44 13 -92 -24 -171 -40 -81 -54 -90
-34 -20 12 45 7 86 -12 86 -5 0 -8 -6 -5 -14 8 -20 -18 -126 -35 -143 -8 -8
-22 -15 -31 -17 -8 -1 -25 -13 -36 -26 -18 -21 -22 -23 -31 -10 -9 14 -6 98 5
173 4 22 1 27 -15 27 -19 0 -20 -7 -20 -97 0 -109 -11 -141 -35 -109 -15 20
-21 75 -16 159 2 43 0 49 -20 54 -21 6 -21 7 -4 19 20 15 14 41 -11 51 -20 7
-35 -14 -33 -47 1 -14 1 -58 1 -98 -2 -81 -14 -95 -58 -72 -22 12 -27 11 -57
-18 -37 -36 -49 -39 -67 -17 -7 8 -27 17 -45 21 l-33 6 -7 94 c-4 52 -5 108
-1 124 3 17 1 30 -4 30 -18 0 -10 29 10 35 27 9 44 -3 30 -20 -14 -17 0 -26
28 -18 11 3 22 15 24 27 3 19 10 21 72 24 58 3 72 0 91 -18 19 -18 26 -19 49
-9 17 8 26 20 26 36 0 22 3 23 80 23 44 0 83 1 88 3 4 1 8 -8 10 -21 3 -18 8
-22 20 -17 30 13 97 15 552 18 383 3 450 6 483 20 41 18 45 31 21 65 -12 18
-25 22 -65 22 -37 0 -49 4 -49 15 0 8 5 15 10 15 6 0 10 4 10 9 0 12 -53 0
-65 -14 -16 -20 -66 -24 -275 -26 l-195 -1 2 46 c1 25 0 46 -2 46 -32 0 -75
-49 -75 -85 0 -12 -21 -15 -116 -15 l-116 0 7 38 c5 30 2 42 -13 56 -24 21
-30 13 -40 -46 l-8 -43 -709 3 c-430 1 -709 6 -708 11 2 5 6 29 9 52 l7 42
-74 -7 c-40 -3 -78 -12 -84 -18 -7 -8 5 -9 44 -5 l53 6 -7 -37 c-4 -20 -9 -40
-11 -44 -3 -5 -78 -8 -167 -8 -88 0 -157 4 -151 8 13 12 156 62 177 62 9 0 17
-4 17 -10 0 -5 -5 -10 -12 -10 -6 0 -8 -3 -5 -6 9 -9 38 16 32 27 -12 18 39
49 79 49 23 0 64 3 91 6 l50 6 -4 -52 -3 -53 53 7 c30 4 102 9 161 13 59 3
105 9 103 14 -3 4 -15 5 -28 2 -16 -4 -19 -3 -11 6 6 7 51 14 104 16 51 3 98
9 104 14 6 5 34 16 63 24 28 9 63 23 77 32 32 21 66 12 63 -18 -3 -28 32 -36
51 -11 13 17 14 16 7 -11 -16 -65 -39 -60 297 -63 l307 -2 15 29 c17 33 36 43
88 47 36 4 37 3 28 -22 -6 -14 -10 -35 -10 -48 0 -21 2 -22 81 -15 73 7 84 10
108 37 19 23 38 32 74 37 l49 7 -7 -30 c-6 -29 -5 -30 39 -33 25 -2 59 -1 77
2 17 4 150 10 295 14 192 6 267 11 274 20 6 7 17 53 26 101 14 88 31 172 41
208 4 16 13 18 74 14 64 -3 70 -2 74 17 4 18 53 338 77 500 6 39 14 74 19 79
17 19 9 26 -27 26 -33 0 -36 2 -29 23 12 40 34 151 35 177 l0 26 -252 4 c-403
6 -428 5 -499 -24 l-61 -25 5 29 c4 15 9 39 13 54 3 15 2 26 -4 26 -10 0 -64
-78 -106 -151 -16 -27 -20 -30 -24 -16 -2 10 3 33 12 52 25 51 21 63 -26 76
-35 9 -59 9 -128 -4 -47 -9 -112 -19 -145 -23 -33 -3 -63 -11 -67 -18 -12 -18
-9 44 8 129 8 44 18 113 21 152 l6 73 29 -25 c16 -14 33 -25 36 -25 4 -1 17
-9 30 -19 26 -22 20 -51 -9 -44 -10 3 -19 2 -19 -1 0 -4 22 -37 49 -74 41 -56
47 -69 36 -81 -22 -22 -50 -4 -75 49 -28 59 -36 59 -19 -1 7 -24 12 -52 11
-61 -1 -22 27 -23 94 -3 32 9 67 12 101 8 29 -3 72 -1 95 6 64 16 122 18 124
4 1 -7 2 -20 3 -28 1 -12 15 -15 69 -14 128 1 327 43 318 66 -9 21 19 26 52 9
37 -19 85 -12 189 28 59 22 82 38 127 86 99 107 141 235 117 353 -15 74 -46
138 -70 144 -10 2 -25 18 -35 34 -19 32 -12 38 16 12 26 -24 22 0 -5 25 -12
12 -60 44 -107 72 -46 28 -99 64 -117 81 -37 33 -57 37 -225 42 -54 2 -101 6
-104 10 -24 24 67 38 107 17 13 -7 25 -8 37 -1 15 9 13 11 -15 21 -29 11 -50
36 -38 48 3 3 5 0 5 -7 0 -8 7 -10 20 -6 11 3 32 -1 47 -9 45 -25 139 -52 283
-80 74 -15 145 -29 158 -32 32 -6 27 -19 -13 -38 -38 -19 -57 -16 -153 23 -81
32 -85 24 -7 -14 142 -69 178 -83 194 -77 47 17 147 79 190 118 27 24 54 44
59 44 18 0 52 66 52 99 0 23 -5 31 -17 32 -10 0 -49 3 -87 8 -47 5 -85 3 -119
-6 -28 -7 -53 -10 -56 -7 -7 7 55 64 69 64 6 0 10 -5 10 -10 0 -6 10 -4 23 4
17 12 39 13 100 7 70 -6 77 -5 77 11 0 16 -10 18 -90 18 -85 0 -90 1 -90 21 0
16 4 19 18 14 9 -4 50 -9 90 -10 70 -2 72 -1 72 23 0 22 -2 23 -17 11 -15 -13
-16 -11 -10 11 4 14 7 29 7 33 0 5 5 5 10 2 6 -4 10 42 10 130 l0 136 -22 -7
c-36 -11 -100 -45 -134 -70 -17 -13 -78 -46 -135 -73 -92 -44 -107 -55 -135
-98 -79 -121 -175 -215 -250 -243 -35 -14 -28 -19 59 -47 105 -35 158 -40 196
-17 25 15 35 16 50 7 10 -7 58 -15 105 -19 48 -4 89 -10 91 -14 9 -15 -22 -41
-55 -45 -48 -6 -430 63 -467 85 -10 6 -42 16 -72 23 l-53 14 54 26 c67 33 130
86 159 135 12 20 36 53 54 72 73 80 97 151 96 290 0 58 -6 82 -36 146 -19 42
-35 83 -35 90 0 7 -11 21 -26 31 l-25 19 25 24 26 23 0 -22 c0 -12 5 -31 10
-42 19 -35 91 -3 112 51 6 14 12 20 15 13 3 -7 -16 -36 -41 -65 l-45 -52 21
-35 c12 -20 27 -41 35 -47 7 -6 13 -18 13 -27 0 -13 7 -15 30 -10 26 5 30 3
30 -16 0 -11 2 -21 5 -21 6 0 124 60 254 130 41 22 77 37 80 35 6 -7 10 -4
-124 -85 -167 -102 -213 -124 -257 -121 -20 1 -39 -3 -43 -9 -4 -6 4 -10 19
-10 18 0 25 -5 24 -17 -1 -10 0 -37 0 -60 l2 -42 39 35 c44 40 251 166 312
190 21 9 39 22 39 30 0 19 3 20 -80 -26 -40 -22 -75 -40 -77 -40 -3 0 -42 -25
-86 -56 -102 -70 -127 -81 -127 -55 0 19 14 28 185 121 199 108 185 97 185
145 0 29 -5 45 -15 49 -8 3 -15 16 -15 28 1 22 1 22 15 4 14 -18 15 -8 15 93
0 104 -1 113 -17 106 -10 -4 -37 -13 -60 -21 -23 -7 -53 -20 -67 -29 -14 -9
-30 -14 -36 -10 -11 7 -13 44 -4 70 6 14 9 14 28 1 20 -13 24 -12 34 4 6 10
36 30 66 45 31 15 56 34 56 41 0 19 1 19 -76 -26 -38 -22 -74 -40 -81 -40 -20
0 -15 18 10 33 127 77 147 93 147 115 0 23 -2 22 -47 -15 -27 -22 -69 -53 -94
-70 -51 -36 -83 -68 -55 -57 26 10 18 -7 -16 -37 l-33 -27 30 -32 c17 -18 60
-47 98 -66 65 -33 85 -54 50 -54 -9 0 -25 -7 -35 -17 -10 -9 -18 -11 -18 -5 0
6 4 14 10 17 19 12 10 24 -42 59 -29 20 -71 51 -93 69 -39 34 -39 34 -22 60
23 35 112 127 123 127 13 0 96 80 123 118 12 18 21 42 19 54 -3 19 -16 8 -89
-74 -117 -132 -140 -150 -176 -142 -27 7 -28 6 -10 -13 20 -23 22 -39 4 -50
-8 -4 -26 -28 -41 -53 -21 -35 -25 -39 -20 -18 5 25 3 28 -17 28 -13 -1 -70
-1 -127 0 -57 0 -107 -2 -112 -5 -5 -3 0 -15 12 -27 29 -29 9 -36 -40 -14 -21
9 -62 20 -92 25 -86 14 -183 46 -194 63 -12 20 29 83 91 138 24 20 43 41 43
45 0 16 175 225 193 231 26 8 44 -18 18 -27 -9 -4 -26 -20 -36 -36 -10 -15
-51 -70 -92 -120 -72 -92 -89 -118 -56 -92 15 12 16 12 10 -3 -5 -13 -1 -18
13 -18 25 0 25 -9 3 -27 -13 -10 -9 -10 15 2 17 8 32 11 32 6 0 -13 -51 -40
-65 -35 -6 3 -28 -13 -49 -35 l-38 -39 114 -2 c62 -1 134 -3 160 -5 56 -2 63
1 72 38 9 36 26 35 26 -2 0 -25 5 -30 40 -39 22 -5 42 -7 45 -2 6 10 -5 20
-25 20 -44 0 -49 55 -10 101 16 19 19 20 13 5 -4 -13 -2 -17 8 -14 8 2 16 15
17 27 2 13 -1 21 -6 17 -5 -3 -1 11 9 31 11 21 19 48 19 60 0 26 21 64 58 104
17 20 25 42 29 85 5 65 25 97 57 92 15 -2 22 -12 24 -31 4 -35 -13 -57 -41
-54 -16 1 -22 -3 -20 -17 1 -11 -14 -43 -32 -72 -30 -46 -65 -147 -65 -184 0
-26 26 9 44 59 19 53 36 74 56 69 7 -2 29 21 49 49 20 29 41 53 48 53 14 0 49
42 88 106 26 44 30 47 33 25 2 -15 -2 -28 -12 -33 -9 -5 -16 -16 -16 -24 0 -8
-18 -37 -40 -65 -22 -28 -40 -55 -40 -61 0 -5 -14 -30 -31 -54 -17 -25 -29
-47 -27 -49 6 -6 131 145 147 178 8 15 18 27 23 27 4 0 8 65 8 145 l0 145
-189 0 c-180 0 -189 -1 -194 -20 -3 -11 -11 -20 -17 -20 -7 0 -10 8 -7 20 4
17 0 20 -29 20 -19 0 -34 -5 -34 -11 0 -6 -10 -24 -21 -41 -18 -24 -19 -32 -8
-38 18 -12 -3 -50 -60 -105 -45 -44 -50 -75 -8 -55 13 7 8 -2 -14 -22 -41 -37
-279 -316 -341 -400 l-17 -23 -1 33 c0 17 -4 32 -10 32 -5 0 -10 -10 -10 -22
0 -13 -9 -38 -20 -55 -20 -34 -50 -44 -50 -18 0 21 35 88 54 104 9 8 16 20 16
28 0 24 -25 -1 -71 -72 -40 -62 -41 -63 -96 -70 -142 -18 -210 -54 -303 -162
-100 -117 -134 -217 -128 -373 5 -141 38 -204 171 -335 156 -153 269 -203 437
-192 51 4 75 2 60 -3 -14 -4 -49 -8 -79 -9 -52 -1 -53 -2 -38 -19 10 -10 17
-31 17 -46 0 -31 -26 -86 -40 -86 -13 0 -13 17 0 25 5 3 10 13 10 21 0 16 -73
19 -130 5 -19 -5 -53 -12 -75 -15 l-40 -6 24 20 c30 26 16 26 -27 0 -18 -11
-41 -20 -52 -20 -34 0 -31 -18 7 -49 65 -54 100 -57 250 -25 13 2 38 18 56 34
19 16 38 26 42 22 5 -4 6 0 3 8 -3 9 0 24 8 35 8 10 14 13 14 7 0 -7 7 -12 15
-12 25 0 17 -16 -31 -63 -50 -49 -98 -77 -136 -77 -30 0 -68 -11 -68 -19 0 -3
7 -15 15 -25 14 -18 15 -18 40 -2 33 21 42 14 27 -19 -31 -67 1 -195 49 -195
10 0 19 -6 19 -13 0 -9 -10 -12 -30 -9 -18 3 -30 0 -30 -7 0 -6 16 -11 36 -11
l35 0 -2 -54 c-2 -41 4 -66 24 -107 14 -30 33 -71 41 -92 18 -44 42 -52 31
-10 -9 37 -8 60 3 111 9 43 9 43 -14 38 -19 -5 -26 -1 -34 16 -16 39 -32 170
-21 181 5 5 11 1 15 -11 4 -11 20 -25 37 -31 21 -7 31 -18 35 -41 6 -27 8 -28
19 -14 17 24 41 12 65 -35 27 -54 25 -81 -10 -129 -32 -44 -39 -49 -57 -31 -8
8 -13 8 -17 0 -11 -18 2 -29 28 -24 20 4 25 0 28 -18 3 -23 5 -22 53 22 64 59
86 70 127 63 25 -4 29 -3 18 5 -8 6 -34 13 -58 17 -23 3 -44 9 -47 13 -2 4 -1
32 3 62 10 75 6 89 -28 89 -15 0 -33 7 -40 15 -11 13 -7 15 24 15 60 0 45 26
-36 65 -78 36 -108 56 -108 72 0 22 92 93 120 93 15 0 2 -72 -16 -86 -21 -17
-18 -21 32 -44 61 -27 66 -26 60 13 -3 17 -8 62 -11 100 -6 57 -4 67 9 67 21
0 132 -56 173 -87 47 -36 77 -104 69 -155 -6 -34 -3 -45 15 -64 13 -13 28 -24
36 -24 20 0 15 45 -7 65 -26 23 -23 60 4 60 62 0 82 -178 33 -287 -14 -32 -31
-58 -36 -58 -19 0 -12 55 9 73 28 24 25 38 -15 70 -39 31 -38 33 -35 -69 3
-115 -37 -106 -49 11 -7 69 -32 110 -62 102 -11 -3 -19 2 -22 14 -6 22 -45 26
-53 5 -10 -27 39 -99 70 -102 6 0 17 -2 24 -2 19 -3 14 -30 -8 -37 -27 -9 -25
-17 10 -43 34 -25 40 -52 12 -52 -28 0 -52 -32 -45 -59 l6 -24 -84 7 c-46 4
-102 12 -124 18 -22 6 -44 11 -49 9 -5 -1 -13 4 -17 11 -5 8 -15 -3 -28 -35
-19 -44 -22 -47 -58 -47 -31 1 -35 3 -20 11 12 7 15 17 11 37 -8 33 -116 236
-188 352 -28 47 -70 114 -92 150 -40 65 -218 299 -238 312 -17 11 -3 17 27 11
20 -4 25 -8 16 -14 -28 -17 4 -21 84 -11 97 13 137 28 137 53 0 11 -5 16 -14
13 -29 -11 -81 26 -208 148 -350 333 -426 397 -533 447 -33 16 -77 32 -97 35
-21 4 -38 10 -38 14 0 4 22 33 49 64 62 73 125 187 141 257 18 78 7 199 -25
268 -14 31 -25 60 -25 65 0 5 15 6 33 3 28 -6 34 -3 52 27 11 18 25 49 31 68
l10 35 8 -39 7 -39 19 30 c21 35 134 363 127 369 -3 3 -18 -15 -33 -40 -16
-25 -35 -45 -42 -46 -15 0 -11 7 35 68 51 67 47 73 -48 70 l-81 -3 -13 -37
c-25 -75 -26 -95 -2 -102 l21 -5 -21 -23 c-19 -21 -35 -66 -76 -213 -15 -52
-32 -63 -51 -33 -8 13 -6 25 8 48 18 32 65 190 90 308 14 62 14 62 -10 62 -20
0 -23 -6 -29 -57 -3 -32 -21 -119 -39 -193 -25 -100 -37 -136 -50 -138 -13 -3
-16 5 -16 35 0 35 34 186 58 258 6 17 13 45 16 63 5 29 3 32 -18 32 -26 0 -31
-14 -41 -127 -3 -34 -12 -78 -20 -97 -8 -20 -15 -46 -15 -60 0 -14 -5 -28 -10
-31 -6 -4 -46 21 -90 54 -44 34 -89 61 -102 61 -13 0 -30 5 -38 11 -11 8 13 9
85 5 57 -2 101 -9 103 -15 5 -14 42 -14 42 -1 0 6 -7 10 -15 10 -22 0 -18 19
9 55 18 23 22 35 14 43 -8 8 -8 23 0 52 l10 41 -91 -3 -92 -3 -12 -60 -12 -60
2 63 2 62 -36 0 c-33 0 -37 -3 -43 -31 -3 -17 -6 -42 -6 -56 0 -21 -4 -24 -32
-21 -36 3 -38 11 -25 76 6 30 5 32 -23 32 -27 0 -30 -4 -36 -40 -7 -42 -26
-66 -44 -55 -5 3 -15 26 -21 51 -10 37 -15 44 -37 44 -24 0 -24 -2 -19 -44 6
-41 5 -44 -20 -50 -32 -9 -34 -6 -40 49 -5 40 -8 45 -31 45 -23 0 -24 -2 -20
-50 5 -47 4 -49 -25 -60 -17 -5 -33 -8 -36 -4 -3 3 -11 29 -16 57 l-10 52
-119 3 c-108 2 -118 1 -112 -14 4 -10 9 -44 13 -76 4 -43 3 -58 -7 -58 -10 0
-10 -3 0 -15 15 -18 7 -30 -14 -22 -9 4 -13 12 -10 20 2 7 -7 30 -21 51 -25
37 -26 73 -2 104 7 9 1 12 -27 12 -35 0 -36 -1 -36 -40 0 -21 7 -59 14 -82 19
-55 56 -225 56 -255 0 -13 -6 -23 -13 -23 -7 0 -23 -11 -35 -25 -28 -32 -43
-24 -35 17 4 21 3 29 -5 24 -13 -8 -17 7 -32 114 -20 146 -31 201 -48 236 -15
33 -17 34 -79 34 l-63 0 5 -27 6 -28 -23 28 c-13 15 -31 27 -40 27 -16 0 -16
-4 -2 -42z m3329 -63 c-28 -35 -40 -44 -49 -35 -8 8 0 22 32 52 56 52 66 42
17 -17z m-2965 -70 c13 -41 18 -41 88 -16 35 13 68 18 95 15 51 -6 56 -11 26
-23 -13 -5 -33 -19 -44 -31 -31 -34 -136 -112 -143 -105 -3 3 -6 13 -7 23 -1
9 -5 28 -9 42 -7 24 -6 24 8 6 14 -18 16 -18 16 -2 0 9 -11 28 -25 41 -15 13
-29 39 -32 61 -8 46 10 39 27 -11z m1220 -7 c0 -5 -4 -8 -10 -8 -5 0 -10 10
-10 23 0 18 2 19 10 7 5 -8 10 -18 10 -22z m45 10 c-4 -13 -9 -35 -12 -50 -6
-30 -23 -28 -23 2 0 26 21 70 33 70 5 0 6 -10 2 -22z m-628 1 c51 -10 113 -38
113 -52 0 -5 -42 -8 -92 -6 -164 4 -358 -23 -358 -49 0 -11 -8 -13 -32 -8 -43
9 -61 25 -47 42 6 8 16 14 22 14 5 0 26 12 45 27 20 15 52 30 71 34 49 10 220
8 278 -2z m2045 -36 c-6 -3 -10 -8 -7 -12 2 -5 -16 -35 -40 -67 -25 -32 -61
-82 -80 -110 -19 -28 -52 -66 -73 -83 -27 -21 -42 -42 -46 -65 -9 -49 -27 -61
-71 -46 -20 7 -39 19 -42 27 -4 10 36 57 118 140 68 68 135 134 148 146 14 12
41 36 60 54 20 17 38 29 41 26 3 -3 -1 -8 -8 -10z m278 -37 c0 -3 -4 -8 -10
-11 -5 -3 -10 -1 -10 4 0 6 5 11 10 11 6 0 10 -2 10 -4z m-2340 -82 c0 -63 11
-68 58 -29 17 14 35 25 41 25 45 0 230 -162 256 -223 20 -47 28 -152 17 -209
-10 -53 1 -88 16 -48 5 14 13 40 17 58 10 46 29 41 21 -5 -4 -21 -10 -58 -13
-81 -6 -43 -6 -44 17 -30 12 7 30 31 40 53 l19 40 -5 -47 c-3 -31 -17 -66 -37
-97 -55 -84 -57 -87 -63 -73 -10 21 -24 13 -24 -13 0 -14 -4 -25 -10 -25 -5 0
-7 -6 -4 -14 12 -30 -141 -96 -221 -95 l-40 0 31 17 c17 9 46 29 66 45 19 15
39 27 44 27 20 0 108 100 120 137 22 63 22 63 -66 63 l-80 0 -14 -33 c-13 -32
-65 -81 -113 -106 -56 -29 -156 -3 -194 51 l-21 29 -19 -31 c-19 -30 -72 -61
-131 -75 -26 -7 -28 -5 -28 24 0 17 -5 31 -11 31 -25 0 3 66 46 110 39 40 56
70 40 70 -3 0 -23 -12 -44 -26 -45 -29 -126 -44 -252 -44 -65 0 -90 4 -99 15
-26 32 -5 42 97 47 105 5 143 18 143 48 0 17 -6 18 -54 13 -30 -3 -66 -3 -80
1 -23 6 -26 11 -25 49 3 87 10 101 54 107 39 5 40 6 47 50 3 25 7 69 7 98 1
49 -1 52 -23 52 -14 0 -28 -4 -31 -10 -10 -16 -45 -12 -45 5 0 8 6 15 14 15 8
0 29 12 46 27 30 25 38 26 119 24 70 -2 94 -7 127 -26 43 -25 57 -45 48 -69
-9 -24 -96 -37 -109 -16 -14 23 -25 7 -25 -34 0 -52 13 -65 34 -35 11 17 18
19 28 11 7 -5 27 -12 43 -14 33 -3 33 -2 12 -103 -12 -59 -13 -60 -45 -61 -39
-1 -55 -20 -40 -47 7 -14 16 -17 36 -12 85 20 112 87 119 297 l6 147 61 3 c34
2 64 2 69 0 4 -2 7 -28 7 -58z m2294 22 c-3 -9 -9 -14 -13 -11 -9 5 -74 -72
-84 -99 -4 -10 -10 -16 -14 -13 -13 13 22 70 66 107 47 41 56 44 45 16z
m-1999 -31 c27 -15 27 -16 5 -10 -14 3 -54 11 -90 17 -74 13 -80 16 -61 27 16
11 105 -10 146 -34z m1775 -27 c27 -55 26 -58 -15 -58 -36 0 -41 10 -36 60 6
53 25 52 51 -2z m-2742 -136 c2 -7 -3 -12 -12 -12 -9 0 -16 7 -16 16 0 17 22
14 28 -4z m2712 -18 c0 -11 -65 -113 -72 -114 -15 0 -7 24 23 72 27 42 49 61
49 42z m-2708 -345 c25 -37 54 -81 63 -98 9 -18 24 -35 33 -38 9 -4 34 -25 54
-48 21 -24 60 -52 90 -65 67 -30 44 -36 -53 -16 -88 18 -125 43 -122 81 1 19
-2 25 -12 21 -15 -5 -65 54 -65 77 0 8 -6 20 -14 26 -8 7 -14 26 -14 44 0 18
-8 49 -16 69 -17 40 -21 106 -8 148 5 18 9 2 12 -55 5 -75 8 -84 52 -146z
m2257 77 c18 -10 38 -31 44 -47 8 -20 16 -27 28 -24 11 4 18 -1 22 -15 3 -13
13 -20 30 -20 14 0 29 -5 32 -11 4 -5 18 -14 32 -20 27 -10 26 -32 -1 -37 -34
-7 -64 8 -76 38 -7 16 -19 30 -26 30 -8 0 -22 4 -32 9 -74 38 -123 54 -185 63
-74 10 -292 6 -337 -7 l-25 -8 21 22 c31 33 143 50 304 48 109 -2 142 -6 169
-21z m124 -42 c47 -25 119 -75 114 -81 -3 -2 -22 5 -43 16 -21 12 -43 21 -49
21 -16 0 -82 59 -67 60 7 0 27 -7 45 -16z m-588 -51 c0 -42 -14 -50 -58 -34
-35 13 -34 36 1 55 45 25 57 21 57 -21z m928 7 c-5 -19 -23 -39 -23 -25 0 9
20 45 24 45 2 0 2 -9 -1 -20z m-2448 -50 c9 -16 20 -30 25 -30 21 0 9 -20 -16
-26 -37 -10 -74 10 -74 40 0 22 21 45 42 46 4 0 14 -13 23 -30z m1453 -16 c28
-19 28 -29 -3 -62 l-25 -27 -27 27 c-25 26 -26 27 -9 52 19 30 33 32 64 10z
m525 -14 c80 -24 226 -206 242 -302 10 -55 -1 -62 -66 -45 -48 12 -55 17 -59
43 -6 35 -51 60 -126 71 -27 3 -55 13 -63 20 -20 20 -61 8 -93 -27 -15 -17
-31 -30 -35 -30 -5 0 -44 11 -87 25 -83 26 -111 25 -145 -6 -38 -36 -27 -56
50 -95 74 -37 99 -38 99 -5 0 27 31 31 97 14 32 -9 80 -18 107 -22 27 -3 51
-11 53 -17 3 -8 -11 -8 -49 -1 -29 5 -71 10 -93 11 -37 1 -40 -1 -43 -28 -2
-16 1 -33 7 -39 13 -13 14 -47 2 -47 -5 0 -11 10 -13 22 -2 12 -9 23 -15 26
-9 2 -11 -5 -6 -29 5 -29 4 -32 -13 -25 -61 25 -76 28 -86 18 -16 -16 -2 -29
49 -41 27 -7 59 -19 72 -28 22 -14 25 -13 60 21 40 39 67 44 132 24 48 -14 56
-7 41 36 -10 26 -10 40 -1 60 19 41 28 21 24 -52 -3 -37 -5 -70 -5 -74 0 -5
-11 -8 -25 -8 -16 0 -25 -6 -25 -15 0 -24 59 -20 68 5 4 11 12 16 19 12 11 -7
43 -114 43 -145 0 -9 -31 -27 -82 -47 -82 -32 -83 -32 -168 -21 -180 23 -265
66 -334 169 l-45 68 6 71 c7 83 0 115 -27 141 -20 19 -19 20 95 133 78 77 135
125 177 147 60 32 67 34 143 29 44 -3 97 -10 118 -17z m682 -40 c-7 -11 -95
-73 -95 -67 0 5 91 77 97 77 2 0 1 -4 -2 -10z m-1267 -51 c10 -16 11 -24 3
-32 -14 -14 -57 25 -47 42 11 17 30 13 44 -10z m1131 -5 c2 -10 8 -22 13 -25
5 -3 -2 -13 -16 -23 l-26 -16 7 31 c6 30 5 32 -20 25 -35 -9 -44 10 -10 22 36
13 47 10 52 -14z m-1159 -64 c0 -5 -5 -10 -11 -10 -5 0 -7 5 -4 10 3 6 8 10
11 10 2 0 4 -4 4 -10z m612 -107 c31 -14 64 -33 73 -43 15 -17 14 -19 -30 -28
-39 -8 -54 -7 -88 9 -23 10 -55 30 -70 43 -27 21 -27 24 -12 40 19 19 44 15
127 -21z m296 -96 c3 -78 -9 -112 -68 -184 -59 -75 -84 -70 -36 6 30 46 76
184 76 224 0 18 4 27 13 25 7 -3 13 -29 15 -71z m-903 -37 c-3 -5 -13 -10 -21
-10 -8 0 -14 5 -14 10 0 6 9 10 21 10 11 0 17 -4 14 -10z m1370 -51 c-35 -77
-34 -82 23 -73 53 7 49 -6 -7 -25 -29 -9 -37 -8 -52 5 -10 9 -25 14 -34 11
-22 -9 -19 6 5 21 11 7 20 19 20 28 0 17 59 98 66 91 3 -2 -7 -28 -21 -58z
m-177 -156 c-29 -35 -33 -46 -9 -34 11 7 21 16 21 21 0 6 9 10 20 10 11 0 20
-4 20 -10 0 -5 -6 -10 -14 -10 -7 0 -19 -7 -26 -15 -7 -8 -19 -15 -27 -15 -8
0 -26 -9 -40 -20 -33 -26 -55 -26 -24 0 26 22 22 50 -7 50 -11 0 -26 7 -33 16
-13 15 -9 16 43 11 34 -4 60 -3 63 3 3 6 11 10 17 10 7 0 5 -7 -4 -17z m-152
-90 c-10 -10 -19 5 -10 18 6 11 8 11 12 0 2 -7 1 -15 -2 -18z m-41 -42 c-3 -6
-11 -11 -17 -11 -6 0 -6 6 2 15 14 17 26 13 15 -4z m-43 -43 c-7 -7 -12 -8
-12 -2 0 6 3 14 7 17 3 4 9 5 12 2 2 -3 -1 -11 -7 -17z m426 -24 c23 -3 42
-10 42 -15 0 -5 -21 -19 -47 -30 -36 -16 -58 -19 -88 -14 -22 4 -72 7 -112 6
-47 -2 -74 2 -79 10 -11 19 25 39 70 40 23 0 50 4 61 8 19 8 60 6 153 -5z
m-2678 -199 c40 -160 126 -415 140 -415 4 0 13 33 20 73 7 39 15 76 18 81 6
11 30 -70 39 -132 3 -24 9 -40 13 -35 15 17 38 101 44 158 4 32 13 82 20 110
8 27 20 79 27 114 9 48 14 60 20 45 11 -27 69 -239 69 -250 0 -6 -27 -29 -60
-52 -33 -24 -60 -49 -60 -57 0 -17 25 -10 53 13 24 21 30 10 18 -35 -6 -21
-11 -65 -11 -98 l0 -61 61 -2 c39 -2 58 1 54 8 -3 5 -21 10 -40 10 -19 0 -36
4 -40 10 -8 14 19 72 45 95 l23 20 -12 -22 c-15 -29 -14 -66 2 -61 6 3 13 19
15 36 3 33 51 92 74 92 10 0 13 -9 10 -30 -3 -18 0 -30 7 -30 6 0 11 6 11 13
0 21 39 57 55 51 8 -3 17 -14 20 -24 7 -22 42 -33 49 -15 6 17 -3 25 -26 25
-11 0 -16 5 -13 10 3 6 22 10 41 10 26 0 34 4 34 18 0 16 -8 18 -67 15 -146
-7 -171 -13 -218 -49 -53 -40 -60 -30 -10 15 42 37 47 38 200 49 122 10 140 6
127 -26 -9 -24 22 -8 35 18 9 18 13 21 17 10 17 -50 46 -140 46 -145 0 -3 -24
-32 -54 -64 -99 -108 -97 -134 5 -49 l62 53 -6 -40 c-4 -22 -7 -51 -7 -65 0
-24 -4 -26 -127 -49 -71 -13 -162 -30 -203 -38 -66 -12 -92 -12 -215 2 -112
13 -157 14 -225 6 -130 -17 -216 -13 -361 14 -204 38 -206 39 -219 83 -20 74
-14 80 33 34 40 -39 67 -53 67 -34 0 5 -11 19 -25 32 -13 12 -37 41 -52 64
-15 22 -39 51 -53 64 l-25 23 28 -5 c32 -7 38 13 6 21 -12 4 -18 11 -15 20 3
8 6 24 6 36 0 17 6 12 26 -21 17 -29 24 -51 20 -67 -3 -13 -2 -26 3 -30 5 -3
12 21 16 52 4 32 9 67 12 77 5 17 6 18 15 3 13 -24 26 -21 31 6 l4 22 8 -22
c4 -13 19 -24 35 -28 21 -5 30 -13 33 -33 l4 -27 8 24 c8 22 11 23 74 19 36
-3 81 -13 99 -22 27 -14 32 -22 32 -52 0 -42 23 -43 28 -1 5 39 18 33 26 -10
3 -21 9 -49 13 -62 5 -20 3 -23 -10 -18 -19 7 -47 -1 -47 -13 0 -5 20 -8 45
-8 l45 1 0 74 c0 88 -13 118 -71 164 -23 18 -37 35 -30 37 7 2 34 -15 62 -38
42 -35 49 -38 49 -21 0 11 -17 34 -40 52 -45 36 -51 67 -27 147 l13 43 36
-128 c20 -70 48 -155 62 -188 22 -51 26 -56 26 -30 0 17 -11 75 -24 130 -12
55 -31 138 -41 185 -9 47 -21 98 -26 114 -12 37 -12 73 0 61 4 -6 14 -32 21
-60z m744 -149 c31 -69 26 -78 -44 -74 l-45 3 -2 145 -3 145 34 -80 c18 -44
45 -107 60 -139z m-1148 54 l-1 -130 -37 0 c-24 0 -38 5 -38 13 0 9 73 247 75
247 1 0 1 -58 1 -130z m2444 120 c0 -5 -2 -10 -4 -10 -3 0 -8 5 -11 10 -3 6
-1 10 4 10 6 0 11 -4 11 -10z m482 -23 c-12 -13 -40 -33 -62 -46 -60 -33 -54
1 7 39 58 37 86 40 55 7z m-1472 -85 c7 -29 10 -55 7 -58 -7 -8 -37 86 -37
115 1 36 14 10 30 -57z m830 48 c0 -5 -4 -10 -10 -10 -5 0 -10 5 -10 10 0 6 5
10 10 10 6 0 10 -4 10 -10z m-2615 -74 c-9 -31 -21 -56 -27 -56 -5 0 -8 6 -6
13 3 6 13 37 23 67 23 70 31 50 10 -24z m-946 42 c0 -7 -10 -40 -23 -73 -17
-45 -29 -61 -47 -65 -29 -7 -32 -33 -4 -38 28 -5 36 -15 25 -32 -7 -12 -15
-12 -43 -2 -18 7 -55 12 -81 12 l-48 0 7 33 c14 63 76 150 119 167 33 14 96
12 95 -2z m-181 -40 c-41 -38 -68 -91 -68 -133 0 -6 -14 -44 -31 -85 -25 -60
-29 -77 -20 -92 9 -15 8 -23 -4 -41 -8 -12 -15 -33 -15 -46 0 -24 2 -23 46 19
l45 45 19 -25 c11 -14 20 -29 20 -33 0 -5 28 -7 63 -5 l62 3 0 -65 c1 -36 7
-76 14 -88 7 -13 11 -26 8 -28 -3 -3 -36 2 -73 11 -51 11 -90 29 -151 70 -44
31 -84 63 -88 73 -15 39 -5 170 18 243 42 134 108 208 192 218 5 0 -11 -18
-37 -41z m323 -18 c20 -37 29 -66 27 -90 -3 -31 -8 -37 -59 -61 -80 -39 -109
-77 -109 -145 0 -53 31 -154 67 -214 13 -23 14 -32 4 -44 -15 -18 -56 -6 -77
22 -21 29 -47 188 -36 225 6 18 18 65 27 105 18 80 102 265 118 259 5 -1 22
-27 38 -57z m1239 -24 c0 -14 4 -36 10 -50 9 -24 8 -26 -20 -26 -33 0 -35 6
-18 61 13 44 28 52 28 15z m-1163 -115 c-4 -46 -11 -89 -17 -95 -9 -8 -11 18
-8 96 2 90 5 105 17 95 11 -9 12 -30 8 -96z m73 29 c0 -14 -14 -12 -28 2 -19
19 -14 30 8 18 11 -6 20 -15 20 -20z m2257 -7 c-3 -10 -5 -4 -5 12 0 17 2 24
5 18 2 -7 2 -21 0 -30z m1003 -73 c0 -30 -13 -40 -25 -20 -8 13 4 50 16 50 5
0 9 -13 9 -30z m-2025 -5 c60 -15 105 -39 105 -55 0 -5 -19 2 -42 15 -43 23
-152 45 -227 45 -24 0 -41 5 -41 11 0 15 124 6 205 -16z m-1673 -7 c-7 -7 -12
-8 -12 -2 0 14 12 26 19 19 2 -3 -1 -11 -7 -17z m51 -55 c-6 -76 -8 -79 -43
-88 -20 -5 -32 1 -59 29 -21 22 -31 40 -28 51 6 13 10 13 27 3 30 -19 58 2 74
55 3 9 12 17 20 17 11 0 13 -14 9 -67z m2936 -25 c1 -45 -2 -58 -14 -58 -17 0
-18 17 -8 100 8 68 21 43 22 -42z m788 86 c-3 -3 -12 -4 -19 -1 -8 3 -5 6 6 6
11 1 17 -2 13 -5z m-3357 -134 c0 -5 -7 -10 -16 -10 -8 0 -12 5 -9 10 3 6 10
10 16 10 5 0 9 -4 9 -10z m-4 -64 c21 -16 12 -32 -21 -38 -15 -2 -21 3 -23 25
-4 31 13 36 44 13z m-116 -24 c0 -20 -45 -46 -61 -37 -25 16 2 55 38 55 16 0
23 -6 23 -18z m970 -36 c6 -19 18 -37 28 -41 14 -5 14 -7 2 -15 -25 -16 -29
-12 -45 42 -18 61 -18 61 -6 53 5 -3 15 -21 21 -39z m1555 -216 c3 -115 4
-213 1 -218 -3 -6 -21 -13 -39 -16 -19 -3 -45 -18 -58 -33 l-24 -26 31 22 c42
30 138 41 319 35 l140 -4 41 -45 c22 -25 43 -45 47 -45 4 0 19 19 33 43 15 23
28 43 29 45 3 4 568 3 571 -1 1 -1 -2 -24 -6 -52 -4 -27 -22 -151 -39 -274
-17 -123 -40 -281 -50 -350 -11 -69 -22 -154 -26 -189 -4 -34 -10 -64 -13 -66
-4 -2 -150 -7 -326 -11 l-319 -7 7 27 c6 22 145 234 178 270 5 6 43 -25 98
-80 49 -49 91 -87 93 -84 8 8 59 371 53 376 -3 3 -36 -19 -73 -49 -37 -30 -90
-69 -117 -87 -51 -36 -59 -34 -72 17 -6 22 -24 31 -24 12 0 -6 -22 -40 -49
-76 -45 -60 -48 -67 -38 -94 10 -28 8 -32 -49 -92 -34 -35 -68 -78 -78 -96 -9
-17 -22 -33 -29 -34 -55 -7 -897 -1 -897 6 0 12 109 183 322 503 133 201 171
266 187 320 22 75 65 126 114 138 32 8 46 48 28 76 -6 10 -11 33 -11 51 l-1
33 -14 -30 c-7 -16 -14 -25 -15 -20 0 6 -8 -6 -17 -25 l-17 -35 -4 28 c-2 16
2 34 8 41 16 21 69 194 76 254 4 28 10 52 14 52 4 0 11 -94 15 -210z m-1665
139 c0 -30 24 -70 82 -141 52 -63 69 -80 76 -73 4 4 -14 136 -23 156 -5 14 -2
15 27 6 l33 -10 -3 -69 c-3 -52 0 -74 12 -93 l17 -26 -46 6 c-65 7 -81 19
-110 75 -24 47 -45 70 -30 33 6 -17 24 -165 20 -171 -3 -4 -65 29 -65 34 0 3
9 2 20 -1 24 -8 24 -3 5 61 -8 27 -15 59 -15 72 0 12 -4 22 -10 22 -5 0 -10
-17 -10 -37 0 -58 -11 -113 -23 -113 -12 0 -2 176 15 249 11 48 28 61 28 20z
m-785 -30 c14 -14 -33 -48 -66 -49 -15 0 -41 -3 -59 -6 l-32 -7 24 26 c12 14
29 33 37 42 10 13 22 15 50 10 20 -4 41 -11 46 -16z m2820 -28 c55 -5 151 -13
214 -16 135 -8 191 -23 89 -24 -58 -1 -332 23 -393 34 -11 2 -28 4 -37 4 -10
1 -18 6 -18 12 0 7 9 9 23 6 12 -3 67 -10 122 -16z m-2770 -11 c4 -6 -7 -10
-27 -10 -25 0 -29 3 -18 10 19 13 37 13 45 0z m-222 -40 c85 0 75 -13 -24 -31
-71 -13 -119 -7 -119 14 0 24 21 36 47 26 13 -5 57 -9 96 -9z m2491 2 c9 -16
-15 -146 -41 -222 -14 -41 -38 -89 -52 -106 -14 -17 -32 -39 -39 -50 -31 -46
-2 70 41 163 26 57 48 121 52 152 3 30 8 58 11 63 7 10 21 10 28 0z m-2276
-13 c-2 -6 -7 -10 -11 -10 -4 1 -35 1 -69 1 -45 0 -59 3 -48 10 21 14 133 13
128 -1z m548 -21 c-16 -53 -17 -54 -27 -30 -5 13 -7 28 -3 33 8 14 34 11 30
-3z m2229 -18 c-3 -5 -13 -10 -21 -10 -8 0 -14 5 -14 10 0 6 9 10 21 10 11 0
17 -4 14 -10z m-443 -172 c-7 -7 -12 -8 -12 -2 0 14 12 26 19 19 2 -3 -1 -11
-7 -17z m-1756 -73 c9 -13 18 -42 21 -65 5 -35 -9 -163 -23 -212 -5 -17 -26
-18 -259 -18 -140 0 -256 -3 -258 -7 -3 -5 -8 -23 -12 -40 l-7 -33 241 0 242
0 39 -62 c22 -35 40 -70 40 -79 0 -8 -14 -36 -31 -62 -24 -37 -35 -74 -57
-189 l-27 -143 -135 -5 c-74 -3 -221 -4 -326 -2 -174 3 -191 5 -188 20 2 9 15
68 30 130 l26 112 198 0 c109 0 201 3 203 8 3 4 8 22 12 40 l7 34 -295 -7
c-183 -5 -296 -4 -300 2 -8 13 30 155 139 521 l25 82 339 0 340 0 16 -25z
m434 18 c0 -20 -53 -424 -71 -543 -11 -74 -28 -190 -38 -258 -10 -68 -20 -125
-22 -127 -7 -6 -279 -9 -285 -3 -3 4 6 66 20 139 14 74 27 154 30 179 13 103
47 332 56 379 5 28 14 90 20 137 6 48 13 91 16 96 6 10 274 11 274 1z m392 2
c6 -6 -52 -426 -86 -620 -14 -80 -26 -161 -26 -179 0 -41 33 -75 58 -60 24 15
62 93 62 129 0 16 10 96 21 178 l22 147 140 0 140 0 -6 -47 c-4 -27 -15 -116
-26 -199 -10 -83 -24 -160 -30 -171 -15 -29 -72 -53 -124 -53 -38 0 -49 -5
-65 -27 l-20 -28 -234 -5 c-128 -3 -235 -4 -237 -3 -3 2 8 88 23 191 15 103
39 273 52 377 13 105 30 218 37 253 l14 62 -33 0 c-31 0 -34 3 -34 30 l0 30
173 0 c96 0 176 -2 179 -5z m678 -6 c0 -30 -65 -285 -74 -291 -15 -10 -524
-10 -530 0 -5 9 48 275 59 292 9 14 545 14 545 -1z m-2637 -795 c-32 -27 -43
-29 -66 -11 -21 15 -13 26 38 54 l40 21 8 -21 c6 -16 1 -26 -20 -43z m-123 -1
c0 -12 -33 -43 -47 -43 -20 0 -16 16 10 33 24 17 37 21 37 10z m-207 -46 c20
-7 37 -18 37 -25 0 -7 11 -17 25 -24 13 -6 22 -15 18 -21 -4 -6 4 -7 21 -3 16
4 25 3 22 -2 -10 -16 -56 -21 -56 -6 0 8 -9 14 -19 14 -11 0 -23 5 -26 10 -4
6 -11 8 -16 5 -5 -4 -9 0 -9 8 0 8 -15 18 -32 23 -19 6 -34 17 -36 28 -3 15 0
17 14 12 11 -4 36 -13 57 -19z m251 -8 c-7 -12 -54 -12 -54 1 0 16 34 29 47
18 7 -6 10 -14 7 -19z m-264 -69 c0 -4 -6 -12 -13 -18 -9 -8 -16 -6 -24 7 -7
11 -10 21 -7 24 7 7 44 -4 44 -13z m520 -90 c0 -5 -19 -10 -42 -10 -32 0 -39
3 -28 10 20 13 70 13 70 0z m-330 -20 c11 -7 12 -12 3 -21 -15 -15 -43 -5 -43
16 0 17 18 19 40 5z m1200 -10 c0 -5 -7 -10 -16 -10 -8 0 -12 5 -9 10 3 6 10
10 16 10 5 0 9 -4 9 -10z m-889 -93 c13 -22 2 -44 -14 -28 -6 6 -23 11 -38 11
-37 0 -59 9 -59 25 0 21 99 14 111 -8z m33 -39 c-25 -43 -67 -99 -71 -95 -2 3
7 23 21 46 14 22 26 45 26 51 0 5 7 10 16 10 9 0 12 -5 8 -12z m1241 -38 c3
-5 29 -10 56 -10 35 0 51 -4 56 -15 4 -13 15 -14 49 -9 l44 6 0 -36 c0 -35
-16 -193 -26 -263 -4 -25 -10 -33 -26 -33 -19 0 -20 4 -16 95 5 116 -10 125
-34 23 -24 -98 -32 -105 -94 -76 l-49 23 -3 58 c-3 55 -14 73 -26 42 -3 -8
-13 -15 -22 -15 -13 0 -15 8 -12 37 4 32 0 42 -25 64 -36 33 -31 54 16 63 18
3 44 17 57 31 25 26 45 32 55 15z m587 -155 c1 -74 2 -144 2 -156 1 -16 -9
-24 -43 -36 -31 -10 -46 -12 -54 -4 -15 15 -47 14 -66 -3 -11 -10 -30 -13 -63
-9 l-48 6 0 81 c0 56 -5 88 -15 103 -13 18 -13 22 0 33 21 18 19 60 -2 60 -17
1 -17 1 0 11 9 5 17 19 17 29 0 19 8 20 135 20 l135 0 2 -135z m228 26 c0 -75
-3 -92 -21 -115 -17 -21 -19 -29 -9 -41 7 -8 19 -15 26 -15 21 0 17 -38 -5
-50 -11 -5 -45 -10 -75 -10 l-55 0 -7 37 c-8 42 11 63 58 63 l28 0 0 86 0 86
-26 -5 c-27 -5 -41 11 -30 38 4 11 21 15 61 15 l55 0 0 -89z m-1216 48 c11 -2
21 -10 24 -18 7 -21 -69 -6 -86 16 -11 15 -10 19 5 24 10 4 22 1 28 -6 6 -7
19 -14 29 -16z m-1048 10 c3 -6 16 -8 27 -5 27 7 67 -3 67 -16 0 -15 -31 -37
-51 -38 -9 0 -19 9 -22 20 -4 17 -11 19 -31 14 -34 -8 -57 1 -50 21 7 17 49
20 60 4z m324 -4 c-7 -8 -16 -15 -21 -15 -5 0 -6 7 -3 15 4 8 13 15 21 15 13
0 13 -3 3 -15z m2400 -354 c0 -5 -9 -11 -20 -14 -22 -6 -28 8 -7 16 19 8 27 8
27 -2z m-805 -79 c54 -13 124 -16 301 -17 225 0 229 0 155 -13 -150 -27 -495
2 -567 47 -21 14 -23 14 111 -17z m572 -8 c-3 -3 -12 -4 -19 -1 -8 3 -5 6 6 6
11 1 17 -2 13 -5z m405 -139 c3 -14 1 -25 -3 -25 -5 0 -9 3 -9 8 0 4 -3 18 -7
31 -4 16 -2 22 4 18 6 -4 13 -18 15 -32z m-695 -71 c5 -16 -38 -26 -54 -12 -7
6 -13 15 -13 20 0 13 63 5 67 -8z m251 1 c8 -8 -3 -14 -36 -21 -28 -6 -32 -4
-32 16 0 20 4 22 32 16 17 -3 34 -8 36 -11z m-128 -51 c0 -13 -37 -34 -60 -34
-16 0 -21 35 -6 46 20 14 66 6 66 -12z m-230 2 c0 -40 -73 -48 -78 -8 -3 20 1
22 37 22 28 0 41 -4 41 -14z m-245 -26 c0 -9 -11 -16 -27 -18 -27 -3 -38 14
-21 32 12 12 48 2 48 -14z"/>
<path d="M2620 4930 c0 -5 13 -10 29 -10 17 0 33 5 36 10 4 6 -8 10 -29 10
-20 0 -36 -4 -36 -10z"/>
<path d="M2470 4910 c0 -5 14 -10 30 -10 17 0 30 5 30 10 0 6 -13 10 -30 10
-16 0 -30 -4 -30 -10z"/>
<path d="M2909 4685 c-2 -2 -2 -84 1 -182 l5 -178 52 -3 c50 -3 53 -2 60 25 4
15 7 66 7 113 0 71 -4 92 -24 127 -21 38 -92 107 -101 98z"/>
<path d="M2753 4644 c-3 -9 -3 -74 -1 -146 l6 -129 -47 -34 c-56 -42 -64 -43
-57 -7 16 83 18 102 7 102 -6 0 -11 -8 -11 -18 0 -10 -11 -41 -25 -68 l-25
-49 25 -23 c14 -12 25 -28 25 -35 0 -7 5 -4 11 6 8 13 23 17 64 17 32 0 57 5
61 12 5 7 11 92 15 188 7 155 6 176 -9 188 -21 16 -31 15 -39 -4z"/>
<path d="M3077 4173 c-4 -3 -7 -11 -7 -17 0 -6 5 -5 12 2 6 6 9 14 7 17 -3 3
-9 2 -12 -2z"/>
<path d="M2960 4066 c0 -9 7 -16 16 -16 9 0 14 5 12 12 -6 18 -28 21 -28 4z"/>
<path d="M2195 4030 c3 -5 8 -10 11 -10 2 0 4 5 4 10 0 6 -5 10 -11 10 -5 0
-7 -4 -4 -10z"/>
<path d="M3957 4023 c-15 -14 -5 -21 44 -33 37 -9 54 -9 62 -1 8 8 0 11 -31
11 -29 0 -45 5 -48 15 -7 16 -17 19 -27 8z"/>
<path d="M3820 3787 c0 -13 92 -57 119 -57 25 0 4 25 -40 47 -50 25 -79 29
-79 10z"/>
<path d="M3797 3714 c-11 -11 3 -24 18 -18 8 4 12 10 9 15 -6 11 -18 12 -27 3z"/>
<path d="M3899 3579 c-16 -9 -14 -11 27 -32 45 -23 120 -38 149 -31 18 4 25
13 25 30 l0 24 -20 -20 c-24 -24 -51 -20 -121 15 -29 14 -52 20 -60 14z"/>
<path d="M4181 3522 c-56 -17 -48 -72 10 -72 43 0 129 20 129 31 0 28 -91 55
-139 41z"/>
<path d="M2124 2785 c-3 -8 -3 -19 1 -25 11 -18 25 -11 25 15 0 27 -17 34 -26
10z"/>
<path d="M2000 2774 c0 -8 5 -12 10 -9 6 3 10 10 10 16 0 5 -4 9 -10 9 -5 0
-10 -7 -10 -16z"/>
<path d="M2981 2774 c0 -11 3 -14 6 -6 3 7 2 16 -1 19 -3 4 -6 -2 -5 -13z"/>
<path d="M2191 2764 c0 -11 3 -14 6 -6 3 7 2 16 -1 19 -3 4 -6 -2 -5 -13z"/>
<path d="M2180 2620 l-45 -7 45 -1 c25 -1 52 3 60 8 18 11 13 11 -60 0z"/>
<path d="M2938 2613 c6 -2 18 -2 25 0 6 3 1 5 -13 5 -14 0 -19 -2 -12 -5z"/>
<path d="M4014 1902 l-80 -3 -27 -54 -27 -55 89 0 89 0 47 55 c25 30 45 56 43
56 -9 3 -62 4 -134 1z"/>
<path d="M3345 1760 l-29 -30 157 0 c150 0 156 1 171 22 9 12 16 26 16 30 0 5
-64 8 -143 8 l-143 0 -29 -30z"/>
<path d="M3374 1523 l-140 -4 -12 -32 c-7 -19 -12 -36 -12 -40 0 -4 77 -7 170
-7 185 0 176 -3 164 59 -4 17 -12 30 -18 29 -6 -1 -74 -4 -152 -5z"/>
<path d="M390 1350 c0 -5 5 -10 10 -10 6 0 10 5 10 10 0 6 -4 10 -10 10 -5 0
-10 -4 -10 -10z"/>
<path d="M1850 835 c-18 -21 -5 -45 25 -45 14 0 28 7 31 15 7 17 -12 45 -31
45 -7 0 -18 -7 -25 -15z"/>
<path d="M1970 805 c0 -10 10 -15 30 -15 20 0 30 5 30 15 0 10 -10 15 -30 15
-20 0 -30 -5 -30 -15z"/>
<path d="M1861 727 c-13 -16 -4 -97 11 -97 11 0 25 36 30 75 3 33 -20 46 -41
22z"/>
<path d="M2233 823 c-7 -2 -13 -12 -12 -21 0 -11 2 -12 6 -4 2 6 11 12 19 12
8 0 14 5 14 10 0 11 -7 12 -27 3z"/>
<path d="M2345 821 c-17 -7 -17 -8 8 -13 19 -4 27 -1 27 8 0 15 -6 16 -35 5z"/>
<path d="M2287 799 c-6 -22 6 -25 22 -5 9 10 8 15 -3 19 -8 3 -16 -2 -19 -14z"/>
<path d="M2250 779 c0 -5 5 -7 10 -4 6 3 10 8 10 11 0 2 -4 4 -10 4 -5 0 -10
-5 -10 -11z"/>
<path d="M2340 770 c0 -5 -12 -10 -27 -10 -14 0 -24 -3 -20 -6 9 -9 87 6 87
17 0 5 -9 9 -20 9 -11 0 -20 -4 -20 -10z"/>
<path d="M2215 741 c-10 -18 15 -22 42 -7 l28 15 -32 1 c-17 0 -34 -4 -38 -9z"/>
<path d="M2320 721 l-35 -4 34 -6 c48 -8 53 -31 7 -31 -20 0 -36 5 -36 11 0
12 -39 2 -57 -15 -9 -8 3 -11 50 -10 34 1 68 2 75 3 13 1 17 48 5 53 -5 2 -24
1 -43 -1z"/>
<path d="M2230 629 c0 -5 9 -9 20 -9 11 0 20 2 20 4 0 2 -9 6 -20 9 -11 3 -20
1 -20 -4z"/>
<path d="M2350 630 c0 -5 7 -10 16 -10 8 0 12 5 9 10 -3 6 -10 10 -16 10 -5 0
-9 -4 -9 -10z"/>
<path d="M1945 5093 c3 -16 9 -46 11 -68 8 -65 14 -74 29 -46 9 17 10 34 4 55
-5 17 -9 43 -9 58 0 22 -5 28 -21 28 -18 0 -20 -4 -14 -27z"/>
<path d="M3465 5083 c-4 -21 -11 -53 -17 -70 -10 -34 -4 -58 12 -48 9 6 23 49
40 123 7 27 5 32 -11 32 -13 0 -20 -10 -24 -37z"/>
<path d="M3517 5063 c-29 -101 -31 -113 -15 -113 8 0 22 -8 31 -18 14 -15 15
-26 6 -72 -5 -30 -10 -65 -10 -77 1 -13 -5 -22 -11 -20 -6 1 -20 -23 -31 -53
-10 -30 -30 -81 -43 -113 -13 -32 -24 -63 -24 -68 0 -11 129 -9 136 3 8 13 24
9 24 -6 0 -40 23 -17 68 66 30 57 55 93 64 92 17 -1 133 192 186 309 18 38 41
81 52 98 l21 29 -25 0 c-22 0 -30 -10 -59 -72 -94 -200 -152 -310 -168 -319
-17 -9 -17 -7 -4 32 8 23 31 67 50 98 41 69 102 195 111 234 l6 27 -174 0
-174 0 -17 -57z"/>
<path d="M3990 5100 c0 -11 -10 -38 -22 -61 -23 -45 -24 -42 26 -74 13 -8 14
-17 5 -50 -5 -22 -14 -56 -19 -75 -5 -19 -30 -79 -55 -133 -43 -90 -48 -97
-76 -97 -17 0 -29 -5 -29 -13 0 -21 12 -28 26 -16 19 15 27 -6 13 -33 -17 -32
-38 -46 -83 -53 l-38 -7 4 -49 c5 -49 -1 -59 -40 -59 -13 0 -17 9 -17 37 0 50
-20 52 -44 6 -29 -58 -57 -67 -110 -36 -2 2 3 11 11 20 8 10 18 30 22 46 5 23
3 27 -16 28 -13 1 -32 3 -43 4 -99 12 -98 13 -123 -30 -13 -22 -22 -33 -19
-25 2 8 7 25 11 37 4 12 3 24 -2 27 -13 8 -62 -32 -62 -49 0 -7 -6 -26 -14
-42 -8 -15 -20 -48 -26 -73 -19 -71 -88 -221 -126 -273 -19 -26 -49 -57 -67
-67 -31 -19 -31 -20 -7 -20 14 1 36 7 50 15 14 8 45 14 69 15 37 0 42 -2 31
-15 -10 -13 -9 -15 8 -15 12 0 37 -7 56 -16 29 -14 35 -23 41 -60 5 -33 11
-44 24 -44 9 0 22 -5 29 -12 19 -19 39 18 52 97 13 86 24 122 63 202 29 61 81
125 63 78 -35 -89 -78 -228 -92 -297 -9 -46 -25 -99 -36 -118 l-20 -34 29 -20
c15 -10 61 -53 102 -95 41 -42 66 -62 56 -46 -87 138 -80 118 -80 244 0 108
13 186 37 216 5 6 30 44 56 85 28 43 81 106 125 146 71 65 82 72 153 88 53 13
86 27 110 48 19 17 34 24 34 17 0 -21 40 22 56 60 8 19 32 50 54 69 22 18 45
43 52 55 11 21 11 21 -13 4 -13 -10 -32 -20 -41 -24 -10 -3 -18 -11 -18 -18 0
-7 -7 -19 -16 -26 -13 -11 -17 -10 -25 4 -6 9 -14 17 -20 17 -18 0 -82 -30
-76 -36 3 -3 15 -1 26 5 27 15 71 4 71 -19 0 -9 -9 -25 -20 -35 -16 -15 -30
-17 -76 -11 -31 4 -61 9 -66 12 -11 7 81 93 100 94 17 0 15 17 -4 28 -26 14
-7 34 26 27 22 -5 30 -2 35 12 3 10 32 37 63 60 53 39 58 40 66 22 13 -26 24
-24 19 4 -3 14 2 31 13 41 23 24 54 71 89 134 15 28 30 51 31 49 2 -2 -5 -28
-16 -58 -25 -69 -5 -45 52 64 42 81 73 111 84 82 4 -9 0 -23 -8 -33 -18 -20
-68 -106 -68 -115 0 -34 60 46 114 151 l26 52 -275 0 c-267 0 -275 -1 -275
-20z m370 -5 c0 -3 -22 -34 -48 -68 -26 -34 -65 -89 -85 -122 -20 -33 -51 -76
-68 -95 -31 -35 -30 -27 2 20 9 14 47 72 84 129 37 57 74 112 83 122 16 18 32
25 32 14z m-1044 -837 c-32 -53 -33 -43 -3 41 20 60 22 63 25 34 2 -22 -6 -47
-22 -75z m206 60 c-15 -15 -26 -4 -18 18 5 13 9 15 18 6 9 -9 9 -15 0 -24z
m-66 -8 c0 -11 -6 -20 -13 -20 -14 0 -18 22 -6 33 12 12 19 7 19 -13z m94 -10
c0 -5 -5 -10 -11 -10 -5 0 -7 5 -4 10 3 6 8 10 11 10 2 0 4 -4 4 -10z m-280
-205 c0 -8 11 -17 24 -21 28 -7 37 -23 29 -53 -4 -16 -9 -18 -23 -11 -10 6
-21 5 -26 0 -6 -6 -18 -4 -31 5 -18 13 -20 20 -13 45 5 16 11 34 15 40 9 15
25 12 25 -5z m134 -40 c8 -32 1 -45 -25 -45 -22 0 -27 38 -7 58 18 18 25 15
32 -13z m-79 -85 c3 -5 1 -10 -4 -10 -6 0 -11 5 -11 10 0 6 2 10 4 10 3 0 8
-4 11 -10z"/>
<path d="M4552 5076 c-18 -24 -32 -49 -32 -55 0 -6 -13 -32 -30 -57 -16 -26
-28 -50 -25 -52 7 -8 87 77 81 86 -2 4 13 33 34 65 32 47 35 57 21 57 -10 0
-32 -20 -49 -44z"/>
<path d="M2390 5077 c0 -20 4 -37 10 -37 5 0 7 14 3 33 -8 45 -13 47 -13 4z"/>
<path d="M1979 4913 c-3 -4 -2 -37 1 -73 l5 -65 7 65 c4 36 3 69 -2 73 -4 5
-9 5 -11 0z"/>
<path d="M3415 4880 c-4 -22 -29 -104 -56 -183 -45 -131 -60 -191 -42 -173 15
14 105 277 127 369 5 20 3 27 -8 27 -9 0 -17 -15 -21 -40z"/>
<path d="M3480 4891 c0 -16 -3 -44 -6 -62 l-5 -34 15 25 c17 28 21 100 6 100
-5 0 -10 -13 -10 -29z"/>
<path d="M1692 4878 c-14 -14 -16 -40 -3 -53 4 -6 13 -31 20 -57 9 -41 51
-126 51 -107 0 4 -12 42 -26 84 -15 45 -24 91 -22 111 4 36 -1 41 -20 22z"/>
<path d="M1758 4850 c28 -41 46 -52 35 -22 -12 33 -35 62 -49 62 -9 0 -5 -13
14 -40z"/>
<path d="M0 4844 c0 -19 157 -184 176 -184 4 0 -2 10 -14 23 -11 12 -21 26
-21 30 0 9 -67 83 -115 126 -25 23 -26 23 -26 5z"/>
<path d="M4938 4692 c-19 -20 -49 -57 -66 -82 -17 -25 -44 -60 -61 -78 -32
-34 -40 -62 -18 -62 23 0 197 243 184 256 -2 2 -19 -13 -39 -34z"/>
<path d="M936 4655 c4 -8 8 -15 10 -15 2 0 4 7 4 15 0 8 -4 15 -10 15 -5 0 -7
-7 -4 -15z"/>
<path d="M3691 4623 c-10 -26 -10 -27 4 -9 8 11 15 23 15 28 0 15 -7 8 -19
-19z"/>
<path d="M4070 4630 c0 -5 5 -10 10 -10 6 0 10 5 10 10 0 6 -4 10 -10 10 -5 0
-10 -4 -10 -10z"/>
<path d="M671 4599 c-11 -19 -11 -21 4 -15 9 3 19 6 21 6 2 0 4 7 4 15 0 21
-13 19 -29 -6z"/>
<path d="M1048 4613 c-14 -4 -15 -8 -5 -24 6 -10 19 -19 27 -19 9 0 21 -5 28
-12 18 -18 23 -5 10 30 -12 31 -22 35 -60 25z"/>
<path d="M3661 4520 c-44 -26 -65 -45 -66 -59 -1 -11 -10 -30 -20 -41 -10 -11
-16 -23 -12 -26 10 -10 27 6 41 40 18 42 74 85 86 65 5 -7 10 -11 12 -9 20 31
37 70 31 69 -4 0 -37 -18 -72 -39z"/>
<path d="M0 4530 c0 -5 12 -17 28 -27 15 -10 29 -20 32 -24 3 -3 28 -18 55
-32 28 -14 60 -35 73 -47 l23 -22 -23 -27 c-13 -14 -24 -28 -25 -30 -1 -2 -23
6 -48 18 -24 11 -61 21 -80 21 l-35 0 0 -114 c0 -101 2 -115 18 -119 16 -4 16
-5 0 -6 -14 -1 -18 -10 -18 -35 0 -33 6 -38 88 -92 48 -31 115 -72 149 -91 65
-36 87 -56 81 -73 -2 -7 -17 -2 -38 12 -44 29 -227 141 -257 157 -19 10 -23 9
-23 -4 0 -8 12 -21 27 -28 16 -6 57 -30 93 -53 36 -23 83 -51 105 -62 72 -38
95 -63 109 -122 13 -51 14 -52 15 -19 1 20 -2 64 -5 97 l-7 61 -124 82 c-68
45 -126 86 -129 91 -8 13 142 -65 196 -101 53 -36 60 -38 60 -11 0 11 4 20 10
20 5 0 13 16 19 36 16 56 97 179 152 228 53 47 61 78 24 84 -51 10 -34 22 31
22 38 0 80 1 94 4 14 2 30 5 36 5 5 1 19 8 30 16 17 13 16 14 -14 4 -22 -7
-74 -9 -145 -5 -62 3 -155 5 -208 5 -115 0 -149 7 -149 30 0 23 -45 64 -100
91 -25 13 -59 33 -76 46 -34 26 -44 29 -44 14z m45 -240 c3 -5 -1 -10 -9 -10
-9 0 -16 5 -16 10 0 6 4 10 9 10 6 0 13 -4 16 -10z m97 -77 c34 -32 73 -69 87
-83 l26 -25 3 28 c4 32 17 35 32 8 14 -27 13 -31 -10 -31 -11 0 -20 -5 -20
-10 0 -13 -25 0 -61 32 -107 95 -148 138 -130 138 7 0 40 -26 73 -57z m108
-44 c0 -5 -7 -9 -15 -9 -9 0 -15 9 -15 21 0 18 2 19 15 9 8 -7 15 -16 15 -21z
m164 -8 c4 -5 -3 -7 -14 -4 -23 6 -26 13 -6 13 8 0 17 -4 20 -9z m-64 -194 c0
-4 -7 -2 -15 7 -8 8 -15 21 -15 28 1 14 30 -20 30 -35z"/>
<path d="M736 4508 c10 -12 22 -27 27 -33 37 -51 50 -65 58 -65 15 0 -22 58
-58 91 -38 34 -54 39 -27 7z"/>
<path d="M270 4492 c0 -5 7 -13 16 -16 10 -4 14 -1 12 6 -5 15 -28 23 -28 10z"/>
<path d="M0 4472 c0 -12 6 -22 13 -22 6 0 34 -21 60 -46 26 -26 50 -44 53 -41
7 7 -48 77 -60 77 -6 0 -23 12 -38 27 -27 26 -28 26 -28 5z"/>
<path d="M5077 4424 c-21 -14 -37 -28 -34 -30 8 -8 77 31 77 44 0 16 1 16 -43
-14z"/>
<path d="M0 4410 c0 -11 6 -20 14 -20 24 0 28 18 6 30 -17 9 -20 8 -20 -10z"/>
<path d="M1120 4426 c0 -2 8 -10 18 -17 15 -13 16 -12 3 4 -13 16 -21 21 -21
13z"/>
<path d="M790 4401 c0 -5 5 -13 10 -16 6 -3 10 -2 10 4 0 5 -4 13 -10 16 -5 3
-10 2 -10 -4z"/>
<path d="M840 4400 c0 -5 5 -10 10 -10 6 0 10 5 10 10 0 6 -4 10 -10 10 -5 0
-10 -4 -10 -10z"/>
<path d="M1978 3973 c-3 -8 -19 -21 -148 -122 -42 -32 -93 -80 -114 -106 -48
-59 -18 -45 44 20 25 26 71 67 103 91 90 67 152 124 134 124 -8 0 -17 -3 -19
-7z"/>
<path d="M3124 3965 c-18 -14 -18 -14 9 -15 38 0 61 -13 129 -71 54 -47 74
-59 66 -41 -8 20 -151 142 -167 142 -9 0 -26 -7 -37 -15z"/>
<path d="M0 3815 c0 -24 5 -47 10 -50 6 -3 10 -12 10 -18 0 -7 -4 -6 -10 3 -7
10 -9 -27 -8 -115 3 -129 3 -130 27 -133 13 -2 44 2 68 9 33 9 47 9 56 0 20
-20 -5 -30 -80 -32 -51 -1 -73 -6 -73 -15 0 -9 28 -12 108 -12 119 -1 146 -7
182 -47 22 -25 23 -27 5 -23 -11 3 -42 11 -70 18 -27 6 -62 15 -77 20 -27 8
-40 -3 -15 -13 7 -3 4 -6 -6 -6 -10 -1 -26 3 -35 8 -18 9 -92 -7 -92 -20 0 -7
77 -19 121 -19 15 0 29 5 31 12 3 9 23 8 81 -5 43 -9 91 -17 107 -17 34 0 45
-13 25 -30 -10 -8 -23 -9 -47 -2 -18 6 -53 13 -77 15 -59 7 -37 -13 40 -36 50
-15 61 -15 113 -2 71 19 103 19 139 0 15 -7 67 -16 115 -19 64 -4 76 -3 47 3
-47 11 -74 25 -134 69 -35 25 -51 31 -73 27 -16 -4 -28 -2 -28 4 0 5 10 11 22
13 35 5 36 37 1 44 -30 6 -33 11 -99 145 -33 67 -42 78 -73 88 -20 6 -63 28
-96 49 -33 21 -95 59 -137 84 l-78 47 0 -44z m30 -261 c0 -8 -4 -14 -10 -14
-5 0 -10 9 -10 21 0 11 5 17 10 14 6 -3 10 -13 10 -21z m334 -4 c7 -7 -4 -10
-29 -10 -21 0 -54 -6 -73 -12 -29 -11 -35 -10 -47 5 -6 9 -18 17 -24 17 -7 0
-9 5 -5 11 8 14 163 4 178 -11z m51 -90 c3 -5 -3 -10 -14 -10 -12 0 -21 5 -21
10 0 6 6 10 14 10 8 0 18 -4 21 -10z"/>
<path d="M3350 3802 c0 -12 19 -26 26 -19 2 2 -2 10 -11 17 -9 8 -15 8 -15 2z"/>
<path d="M4706 3674 c-8 -22 1 -31 16 -16 9 9 9 15 1 23 -7 7 -12 5 -17 -7z"/>
<path d="M1450 3553 c-67 -30 -110 -69 -110 -100 0 -37 27 -27 92 34 49 47 89
96 76 92 -2 0 -28 -12 -58 -26z"/>
<path d="M3819 3370 c45 -41 78 -55 46 -20 -10 11 -23 20 -29 20 -6 0 -17 9
-24 20 -7 11 -18 20 -25 20 -6 -1 8 -19 32 -40z"/>
<path d="M593 3369 c14 -8 22 -8 30 0 8 8 3 11 -18 11 -26 -1 -28 -2 -12 -11z"/>
<path d="M0 3301 c0 -34 4 -40 30 -51 17 -7 34 -18 38 -24 10 -16 67 -46 89
-46 10 -1 34 -14 53 -30 38 -33 27 -42 -13 -10 -14 11 -31 20 -39 20 -8 0 -19
5 -25 11 -6 6 -19 9 -29 7 -14 -2 -3 -12 36 -34 31 -18 62 -39 69 -48 17 -20
31 -21 31 -2 0 8 12 19 28 25 15 6 34 15 42 21 8 6 33 18 55 27 30 13 35 18
21 21 -10 2 -41 -6 -68 -19 -38 -18 -54 -21 -76 -13 -36 13 -34 36 3 47 17 5
53 17 80 28 28 10 83 22 124 28 40 5 79 15 84 20 16 16 -43 14 -112 -3 -74
-20 -106 -24 -170 -25 -45 -1 -52 -3 -42 -15 9 -10 9 -16 1 -21 -6 -4 -17 0
-23 8 -7 8 -29 20 -50 27 -59 19 -31 35 59 34 78 -1 84 6 21 26 -24 7 -60 9
-102 5 -52 -6 -70 -4 -90 9 l-25 16 0 -39z"/>
<path d="M3957 3296 c-20 -30 -17 -32 24 -10 17 8 36 13 43 11 7 -3 19 -1 27
4 12 7 11 9 -2 9 -9 0 -30 3 -46 6 -24 5 -33 1 -46 -20z"/>
<path d="M0 3240 c0 -13 39 -47 60 -53 29 -8 13 19 -26 42 -19 11 -34 16 -34
11z"/>
<path d="M5015 3135 c-54 -30 -100 -55 -101 -55 -2 0 -19 -10 -39 -21 l-36
-22 21 -22 c19 -20 25 -21 51 -12 20 8 29 18 29 34 0 19 10 25 71 43 39 12 79
22 90 23 16 1 19 9 19 44 0 24 -1 43 -3 43 -1 0 -47 -25 -102 -55z"/>
<path d="M0 3125 c0 -39 3 -45 21 -45 27 0 122 -47 132 -66 11 -20 27 -8 27
21 0 19 -18 35 -84 79 -47 31 -87 56 -90 56 -4 0 -6 -20 -6 -45z"/>
<path d="M1250 3143 c-19 -9 -30 -17 -24 -20 11 -4 84 24 84 32 0 9 -24 4 -60
-12z"/>
<path d="M1095 3120 c-3 -5 -2 -10 4 -10 5 0 13 5 16 10 3 6 2 10 -4 10 -5 0
-13 -4 -16 -10z"/>
<path d="M3861 3041 c8 -11 34 -49 59 -85 25 -36 48 -66 53 -66 4 0 7 13 7 28
0 20 -9 35 -30 50 -16 13 -30 29 -30 36 0 15 -27 40 -54 50 -17 6 -17 4 -5
-13z"/>
<path d="M4513 2923 c-13 -19 -23 -39 -23 -44 0 -10 67 -45 74 -38 7 7 -10 99
-20 108 -5 5 -19 -6 -31 -26z"/>
<path d="M5057 2864 c-16 -9 -53 -18 -82 -21 -50 -5 -53 -7 -58 -36 -2 -17 -2
-39 0 -48 5 -16 7 -17 27 -4 12 8 57 20 99 27 l77 12 0 43 c0 48 -13 54 -63
27z"/>
<path d="M4001 2795 c29 -51 29 -51 29 -32 0 9 -12 29 -26 44 l-26 28 23 -40z"/>
<path d="M0 2782 c0 -5 15 -12 33 -15 17 -4 43 -9 56 -13 16 -5 22 -4 18 3 -4
6 -23 14 -43 17 -19 4 -42 10 -50 13 -8 3 -14 1 -14 -5z"/>
<path d="M121 2694 c0 -11 3 -14 6 -6 3 7 2 16 -1 19 -3 4 -6 -2 -5 -13z"/>
<path d="M4080 2696 c0 -8 5 -18 10 -21 6 -3 10 3 10 14 0 12 -4 21 -10 21 -5
0 -10 -6 -10 -14z"/>
<path d="M100 2645 c-8 -9 -30 -15 -56 -15 -24 0 -44 -4 -44 -9 0 -5 15 -9 34
-9 19 0 44 -3 56 -7 24 -8 52 19 43 42 -7 17 -18 16 -33 -2z"/>
<path d="M5033 2647 c-73 -10 -79 -15 -74 -54 1 -6 -19 -26 -44 -43 -64 -44
-60 -60 14 -60 77 0 88 -16 17 -25 -53 -7 -96 5 -96 26 0 5 16 38 35 73 19 35
35 69 35 75 0 27 -20 6 -50 -55 -19 -36 -47 -76 -62 -90 -32 -26 -30 -51 2
-34 27 14 34 12 20 -5 -7 -8 -19 -15 -27 -15 -7 0 -36 -11 -64 -25 -27 -14
-54 -23 -59 -20 -13 8 -52 -14 -45 -26 4 -5 19 -9 35 -9 15 0 36 -3 44 -6 27
-10 -12 -33 -56 -34 -21 0 -38 -4 -38 -10 0 -6 31 -10 74 -10 54 0 77 4 87 16
11 13 9 14 -14 9 -22 -6 -26 -4 -21 9 4 11 19 16 50 16 50 0 55 -10 19 -46
-18 -17 -26 -39 -29 -74 -5 -55 -13 -73 -27 -64 -5 3 -9 -7 -8 -23 1 -15 -1
-35 -4 -43 -4 -10 5 -22 26 -35 18 -11 36 -29 41 -41 6 -12 25 -24 50 -31 23
-5 79 -24 125 -41 47 -17 87 -29 89 -27 3 2 -8 9 -24 15 -60 21 -106 44 -97
47 5 2 36 -3 68 -12 95 -24 95 -24 95 45 0 57 -1 60 -24 60 -14 0 -27 4 -30 9
-3 4 -39 14 -81 21 l-75 13 0 34 c0 32 -2 35 -25 29 -14 -4 -25 -2 -25 4 0 5
7 10 15 10 8 0 15 4 15 10 0 5 6 8 13 5 6 -2 58 -6 115 -10 l102 -6 0 44 c0
44 0 44 -37 45 -74 2 -153 14 -153 23 0 5 11 9 25 9 14 0 25 5 25 11 0 6 7 8
16 5 9 -3 12 -2 9 5 -4 5 -1 17 6 25 11 13 4 14 -52 8 -53 -5 -67 -3 -78 10
-7 9 -22 16 -32 16 -21 0 -35 18 -23 30 5 5 73 10 151 12 128 3 143 5 143 20
0 15 -7 17 -46 11 -38 -5 -46 -3 -42 8 3 9 19 14 47 13 l42 -1 -3 46 -3 46
-49 5 c-47 5 -49 6 -32 23 10 9 32 17 52 17 24 0 34 5 34 15 0 8 -3 14 -7 13
-5 -1 -41 -6 -80 -11z m74 -104 c-6 -6 -149 -34 -153 -30 -12 11 22 28 75 36
35 6 66 13 70 16 3 4 7 1 9 -5 2 -6 2 -14 -1 -17z m-194 -270 c-7 -2 -19 -2
-25 0 -7 3 -2 5 12 5 14 0 19 -2 13 -5z m-73 -60 c0 -10 -20 -40 -20 -31 0 3
-3 13 -6 22 -4 11 -1 16 10 16 9 0 16 -3 16 -7z m87 -209 c-3 -3 -12 -4 -19
-1 -8 3 -5 6 6 6 11 1 17 -2 13 -5z"/>
<path d="M8 2568 c5 -19 47 -25 57 -8 10 15 41 12 56 -6 13 -15 11 -17 -19
-12 -22 3 -32 1 -32 -9 0 -8 -13 -13 -35 -13 -28 0 -35 -4 -35 -20 0 -25 27
-26 89 -4 27 9 48 11 53 6 15 -15 -49 -42 -99 -42 -23 0 -43 -4 -43 -9 0 -10
207 -22 255 -14 34 6 39 23 7 23 -21 0 -82 62 -82 83 0 26 -41 42 -111 42 -58
0 -65 -2 -61 -17z"/>
<path d="M972 2531 c-22 -6 -22 -7 12 -22 36 -16 36 -16 36 7 0 25 -8 27 -48
15z"/>
<path d="M216 2413 c-29 -5 -29 -5 15 -25 24 -11 70 -22 102 -25 83 -8 81 -23
-3 -23 -57 0 -75 4 -92 20 -21 19 -69 27 -140 22 -15 -1 -30 3 -33 8 -3 6 -19
10 -36 10 -27 0 -29 -2 -29 -40 0 -31 4 -40 18 -40 15 0 15 -2 2 -11 -11 -8
-8 -9 15 -5 17 3 71 10 122 17 81 10 95 10 117 -4 21 -14 34 -15 83 -6 32 6
61 14 66 18 13 13 -31 49 -88 70 -56 21 -64 22 -119 14z"/>
<path d="M4985 2411 c-3 -5 -2 -12 2 -14 14 -8 133 5 133 14 0 12 -127 12
-135 0z"/>
<path d="M3476 2353 c-4 -16 -9 -36 -12 -45 -4 -15 1 -18 30 -18 31 0 36 3 36
23 0 24 -25 67 -39 67 -5 0 -12 -12 -15 -27z"/>
<path d="M5026 2331 c-3 -5 1 -12 10 -15 27 -10 36 -7 20 9 -17 17 -23 18 -30
6z"/>
<path d="M1078 2322 c-71 -1 -128 -6 -128 -11 0 -23 281 -23 296 0 3 5 1 9 -5
9 -5 0 -15 1 -23 3 -7 1 -70 1 -140 -1z"/>
<path d="M5095 2320 c-3 -5 1 -10 10 -10 9 0 13 5 10 10 -3 6 -8 10 -10 10 -2
0 -7 -4 -10 -10z"/>
<path d="M4448 2313 c6 -2 18 -2 25 0 6 3 1 5 -13 5 -14 0 -19 -2 -12 -5z"/>
<path d="M578 2293 c12 -2 32 -2 45 0 12 2 2 4 -23 4 -25 0 -35 -2 -22 -4z"/>
<path d="M1602 2200 c-1 -39 5 -77 14 -95 l14 -30 -6 35 c-4 19 -10 62 -14 95
l-7 60 -1 -65z"/>
<path d="M350 2228 c0 -7 5 -20 10 -28 8 -12 10 -9 10 13 0 15 -4 27 -10 27
-5 0 -10 -6 -10 -12z"/>
<path d="M372 2070 c0 -14 2 -19 5 -12 2 6 2 18 0 25 -3 6 -5 1 -5 -13z"/>
<path d="M0 2066 c0 -10 11 -14 33 -14 40 1 53 8 36 19 -23 14 -69 11 -69 -5z"/>
<path d="M4761 1912 c-22 -109 -58 -393 -62 -490 -2 -37 -6 -45 -28 -53 -52
-18 -76 -38 -88 -71 -12 -32 -11 -34 40 -81 l52 -48 -50 34 c-27 19 -58 37
-67 40 -20 7 -23 22 -8 32 13 8 13 102 0 110 -11 7 -16 -12 -30 -128 -8 -68
-8 -96 1 -122 10 -26 16 -32 25 -24 12 10 79 -7 126 -32 32 -17 13 -21 -28 -5
-57 21 -102 27 -110 14 -5 -7 -11 -6 -19 6 -11 15 -13 12 -19 -18 -8 -39 -23
-48 -64 -37 -56 16 -152 24 -152 12 0 -6 13 -14 29 -17 48 -10 105 -91 78
-112 -20 -15 -78 -32 -110 -32 l-31 0 26 -27 c14 -16 33 -40 43 -56 19 -30 55
-44 80 -30 9 5 44 6 83 1 37 -4 100 -9 140 -10 73 -2 103 -14 63 -25 -12 -3
-21 -10 -21 -15 0 -6 7 -7 18 -2 9 4 36 9 60 12 73 7 125 -46 66 -68 -33 -13
-80 -13 -105 0 -29 16 -25 -11 6 -40 29 -27 31 -36 9 -44 -20 -7 -64 3 -64 15
0 5 11 7 25 3 14 -3 25 -3 25 1 0 14 -35 34 -58 35 -15 0 -29 11 -43 35 -26
43 -39 47 -168 49 -93 2 -108 0 -121 -16 -9 -11 -22 -16 -32 -13 -15 6 -54 92
-46 101 3 2 21 -7 42 -21 44 -30 37 -13 -24 55 l-40 45 -279 0 -278 0 15 -23
14 -22 35 21 35 22 -11 -21 c-14 -27 -45 -44 -64 -36 -8 3 -18 1 -22 -5 -3 -6
-17 -11 -31 -11 -23 0 -43 -24 -31 -36 3 -3 40 0 82 7 72 12 76 15 72 36 -2
13 0 26 4 29 5 3 86 8 180 11 166 5 171 4 165 -15 -9 -28 13 -42 54 -33 35 8
29 16 -15 23 -33 5 -24 33 12 36 37 4 86 -34 62 -48 -10 -7 -7 -20 15 -62 39
-73 63 -97 104 -104 58 -11 192 -158 379 -417 15 -21 42 -46 59 -56 18 -11 55
-53 83 -94 l50 -75 111 -1 110 0 0 114 0 114 -40 11 c-54 14 -59 29 -8 23 29
-4 39 -3 34 5 -4 7 -20 12 -35 12 -16 0 -37 10 -51 25 -12 13 -25 24 -29 23
-3 -1 -24 7 -46 16 -22 9 -50 21 -62 26 -13 5 -23 17 -23 27 0 15 1 15 13 1 6
-9 26 -19 42 -23 17 -3 39 -15 51 -26 21 -19 21 -19 32 6 10 21 19 25 51 25
43 0 67 -25 58 -60 -2 -10 -1 -24 4 -31 5 -9 9 23 9 79 0 85 -2 95 -22 112
-13 10 -19 22 -15 27 5 4 15 0 22 -11 12 -15 14 0 14 113 1 123 0 131 -18 131
-11 0 -39 23 -64 51 -37 42 -48 49 -63 41 -11 -5 -37 -13 -59 -17 -22 -5 -47
-10 -55 -12 -37 -9 -127 3 -137 19 -4 7 6 8 28 4 48 -9 132 -7 143 5 6 5 20 9
33 9 15 0 27 9 34 24 9 18 18 23 43 22 17 -1 41 2 53 7 18 8 28 6 43 -8 20
-18 20 -17 20 8 l0 26 -81 -2 c-98 -3 -96 -4 -223 118 -45 42 -65 55 -80 51
-21 -6 -179 64 -191 84 -11 18 13 11 85 -25 58 -30 77 -35 108 -29 20 4 42 10
47 14 24 17 45 19 45 5 0 -8 -7 -15 -15 -15 -21 0 -19 -17 5 -30 11 -6 38 -35
60 -64 27 -38 50 -58 75 -66 51 -17 55 -5 12 31 -31 26 -49 59 -32 59 11 0 81
-48 105 -72 14 -14 37 -27 53 -30 l27 -5 0 141 0 142 -57 -7 c-69 -8 -106 5
-42 14 54 8 99 28 99 45 0 14 -2 15 -32 3 -28 -11 -79 6 -211 68 -48 23 -101
44 -118 48 -34 7 -44 31 -36 95 3 24 10 97 16 163 10 110 28 212 52 291 11 37
12 84 2 84 -5 0 -19 -53 -32 -118z m25 -563 c15 -12 5 -59 -12 -59 -23 0 -66
44 -59 61 6 17 49 15 71 -2z m84 -49 c0 -11 -7 -20 -15 -20 -17 0 -18 2 -9 24
9 23 24 20 24 -4z m47 -52 c-3 -8 -6 -5 -6 6 -1 11 2 17 5 13 3 -3 4 -12 1
-19z m180 -83 c9 -24 0 -25 -26 -4 -23 19 -23 19 -2 19 12 0 24 -7 28 -15z
m-401 -136 c13 -21 -17 -57 -54 -64 -23 -4 -38 -3 -40 4 -2 6 -10 11 -17 11
-19 0 -26 27 -9 41 8 7 28 9 49 6 19 -3 37 -1 40 4 8 12 22 11 31 -2z m-186
-49 c15 -14 38 -43 52 -65 14 -22 37 -51 52 -64 23 -21 29 -23 52 -12 19 8 30
9 38 1 7 -7 6 -10 -4 -10 -7 0 -21 -7 -31 -16 -16 -15 -21 -12 -71 38 -29 29
-65 70 -80 90 -15 20 -38 38 -50 40 -29 4 -36 27 -7 25 12 -1 34 -13 49 -27z
m400 -125 c-40 -16 -149 -20 -134 -6 9 10 59 17 129 19 l40 0 -35 -13z m-30
-131 c0 -28 -4 -43 -10 -39 -5 3 -10 17 -10 31 0 15 -6 24 -15 24 -8 0 -15 5
-15 10 0 6 7 10 15 10 8 0 15 5 15 11 0 5 5 7 10 4 6 -3 10 -26 10 -51z m-1
-64 c20 -5 52 -12 73 -15 20 -3 39 -12 42 -21 3 -8 1 -12 -4 -9 -5 3 -36 10
-67 15 -53 9 -63 7 -111 -16 -42 -21 -56 -23 -67 -14 -23 19 -18 27 23 40 20
7 41 16 47 21 12 11 19 11 64 -1z m178 -110 c6 0 14 -7 17 -16 5 -13 2 -15
-16 -9 -51 16 -83 17 -154 5 -67 -10 -78 -10 -101 6 l-27 17 23 18 c28 23 103
26 120 5 6 -8 28 -16 47 -18 35 -4 53 5 34 17 -5 3 -10 11 -10 17 0 7 13 0 28
-15 15 -15 33 -27 39 -27z m-256 -37 c35 -38 62 -70 60 -73 -2 -3 -13 -3 -25
-1 -24 4 -54 36 -62 67 -4 15 -16 24 -40 28 -31 6 -43 23 -27 39 15 16 33 4
94 -60z m203 -11 c-12 -9 -29 -28 -38 -42 l-16 -26 78 1 c61 0 77 -3 77 -14 0
-11 -18 -16 -74 -19 -94 -4 -132 10 -127 47 8 59 19 68 86 70 35 1 35 0 14
-17z m-104 -12 c-12 -21 -25 -26 -35 -11 -3 6 3 14 12 20 27 16 35 13 23 -9z
m175 -10 c4 -6 -5 -10 -20 -10 -15 0 -24 4 -20 10 3 6 12 10 20 10 8 0 17 -4
20 -10z"/>
<path d="M4620 1000 c0 -5 5 -10 11 -10 5 0 7 5 4 10 -3 6 -8 10 -11 10 -2 0
-4 -4 -4 -10z"/>
<path d="M385 2001 c-3 -5 -1 -12 5 -16 5 -3 10 1 10 9 0 18 -6 21 -15 7z"/>
<path d="M4815 1950 c-14 -16 -15 -20 -4 -24 8 -2 39 -12 69 -22 72 -22 112
-43 105 -54 -3 -5 -25 -12 -49 -15 -34 -5 -53 -2 -86 15 -23 12 -43 20 -45 18
-5 -6 -25 -47 -25 -52 0 -2 60 -6 133 -9 72 -2 149 -9 170 -14 l37 -11 0 43
c0 38 -3 44 -27 49 -82 20 -195 60 -217 77 -30 24 -39 24 -61 -1z"/>
<path d="M335 1951 c-13 -11 -210 -61 -260 -65 -51 -4 -75 -15 -75 -31 0 -20
17 -27 37 -17 10 5 45 16 78 25 33 8 92 25 130 37 39 13 80 23 92 22 13 0 23
8 26 19 5 20 -12 26 -28 10z"/>
<path d="M391 1930 c-1 -33 18 -201 25 -220 5 -13 6 -13 14 0 7 14 -11 144
-30 215 -7 28 -8 28 -9 5z"/>
<path d="M305 1900 c3 -5 13 -10 21 -10 8 0 14 5 14 10 0 6 -9 10 -21 10 -11
0 -17 -4 -14 -10z"/>
<path d="M340 1840 c-8 -5 -32 -10 -52 -10 -21 0 -41 -6 -45 -14 -15 -26 -178
-95 -225 -96 -15 0 -18 -9 -18 -54 l0 -54 61 19 c103 32 104 21 4 -37 l-65
-38 0 -68 0 -67 45 19 c82 35 128 43 252 41 l122 -2 -1 33 c-2 73 -19 103 -35
61 -20 -52 -133 -104 -133 -62 0 4 -12 20 -27 34 l-28 25 30 -5 c47 -9 147 25
165 57 20 36 9 43 -45 28 -61 -17 -66 -8 -13 22 42 23 43 25 46 78 3 57 -3
100 -16 100 -4 0 -14 -5 -22 -10z m-120 -240 c-19 -13 -172 -62 -176 -57 -3 2
15 12 38 22 24 10 57 24 73 31 36 16 89 19 65 4z"/>
<path d="M108 1773 c7 -3 16 -2 19 1 4 3 -2 6 -13 5 -11 0 -14 -3 -6 -6z"/>
<path d="M4780 1723 c0 -19 287 -142 333 -143 4 0 7 9 7 20 0 13 -9 22 -27 27
l-28 7 30 6 c26 6 27 8 11 15 -11 5 -26 4 -35 -2 -13 -8 -24 -4 -51 19 -28 23
-36 26 -38 13 -5 -22 -32 -19 -107 15 -67 30 -95 37 -95 23z"/>
<path d="M4767 1625 c-7 -17 28 -44 103 -78 30 -13 84 -38 120 -54 75 -35 119
-53 125 -53 3 0 5 26 5 58 l0 58 -67 22 c-64 21 -243 62 -269 62 -6 0 -14 -7
-17 -15z"/>
<path d="M454 1585 c3 -11 10 -51 16 -89 6 -38 15 -77 21 -85 7 -12 8 -10 5 9
-3 14 -10 57 -17 95 -7 39 -17 75 -22 80 -6 6 -7 3 -3 -10z"/>
<path d="M310 1553 c-19 -8 -30 -17 -24 -20 7 -2 27 5 45 16 40 25 29 27 -21
4z"/>
<path d="M4757 1562 c-2 -4 -7 -19 -10 -33 -7 -26 -6 -26 66 -33 39 -3 87 -9
105 -12 39 -8 42 7 5 23 -74 32 -163 61 -166 55z"/>
<path d="M4620 1380 c0 -5 5 -10 11 -10 5 0 7 5 4 10 -3 6 -8 10 -11 10 -2 0
-4 -4 -4 -10z"/>
<path d="M4473 1100 c0 -25 2 -35 4 -22 2 12 2 32 0 45 -2 12 -4 2 -4 -23z"/>
<path d="M1140 1105 c-26 -27 -25 -29 7 -39 16 -5 25 -2 32 13 27 50 1 68 -39
26z"/>
<path d="M2546 1091 c-17 -11 -48 -23 -70 -27 -23 -3 -48 -10 -56 -15 -24 -14
38 -11 96 5 27 7 78 12 112 12 87 -3 78 24 -13 38 -31 5 -47 2 -69 -13z"/>
<path d="M4048 1043 c6 -2 18 -2 25 0 6 3 1 5 -13 5 -14 0 -19 -2 -12 -5z"/>
<path d="M760 869 c0 -6 9 -13 20 -16 25 -7 25 -9 -5 -45 -54 -64 -20 -65 44
-2 38 39 54 47 91 51 25 2 49 8 54 13 7 7 -29 10 -97 10 -71 0 -107 -4 -107
-11z"/>
<path d="M3570 856 c0 -17 29 -36 55 -36 11 0 15 7 13 23 -2 17 -11 23 -35 25
-24 2 -33 -1 -33 -12z"/>
<path d="M5030 861 c0 -11 82 -73 88 -67 11 12 -13 46 -42 60 -39 18 -46 19
-46 7z"/>
<path d="M3344 840 c-7 -7 -29 -14 -50 -17 -44 -6 -48 -8 -40 -21 5 -9 91 0
102 11 3 3 4 13 2 22 -2 12 -6 13 -14 5z"/>
<path d="M18 833 c-15 -4 -27 -43 -13 -43 12 0 75 35 75 42 0 8 -32 9 -62 1z"/>
<path d="M874 822 c-12 -9 -24 -28 -28 -42 -3 -14 -14 -36 -25 -49 -18 -23
-19 -24 -48 -6 -20 12 -37 15 -49 10 -11 -4 -53 -8 -94 -9 -68 -1 -76 -3 -85
-24 -5 -12 -18 -25 -27 -28 -10 -3 -18 -12 -18 -20 0 -8 -4 -12 -10 -9 -15 9
-60 -25 -54 -40 7 -16 -24 -52 -58 -69 -13 -6 -29 -24 -36 -39 -14 -29 -19
-31 -41 -18 -21 14 -5 44 19 36 14 -5 20 -2 20 9 0 19 -23 21 -52 5 -12 -7
-60 -11 -107 -10 -47 1 -93 -3 -101 -9 -11 -7 0 -10 40 -10 30 0 71 -3 91 -6
l37 -6 -30 -44 -29 -44 -79 0 c-96 0 -110 -5 -110 -38 0 -24 1 -24 18 -9 26
24 177 25 168 2 -3 -9 -1 -15 7 -14 23 3 37 -1 37 -11 0 -16 -26 -12 -66 10
-20 12 -39 18 -42 15 -4 -3 -1 -10 6 -14 26 -16 -12 -101 -45 -101 -8 0 -26
-12 -40 -26 -20 -20 -28 -23 -34 -12 -7 10 -9 9 -9 -4 0 -10 5 -18 10 -18 6 0
10 -7 10 -15 0 -8 -4 -15 -10 -15 -6 0 -10 -32 -10 -75 l0 -75 113 0 113 0 55
70 c30 39 83 116 118 173 72 118 77 126 193 274 48 61 94 113 103 117 13 5 14
2 4 -17 -7 -12 -23 -38 -37 -57 -23 -33 -23 -33 12 5 73 80 94 100 124 123 29
21 109 139 100 147 -2 2 -13 -4 -24 -13z m-594 -365 c0 -7 -5 -18 -11 -24 -6
-6 -17 -22 -23 -35 -12 -23 -46 -38 -46 -20 0 6 11 24 25 40 14 17 25 35 25
41 0 6 7 11 15 11 8 0 15 -6 15 -13z"/>
<path d="M3165 810 c-16 -31 -16 -32 7 -28 24 3 36 34 20 50 -7 7 -16 0 -27
-22z"/>
<path d="M3763 812 c-3 -8 0 -18 8 -23 21 -14 275 -7 290 8 7 7 11 14 8 17 -2
2 -71 6 -153 8 -121 3 -149 2 -153 -10z"/>
<path d="M2913 813 c9 -2 25 -2 35 0 9 3 1 5 -18 5 -19 0 -27 -2 -17 -5z"/>
<path d="M2958 774 c-13 -13 -123 -21 -130 -10 -5 7 -8 5 -8 -6 0 -14 12 -16
80 -15 69 2 80 4 80 19 0 18 -11 24 -22 12z"/>
<path d="M490 730 c-8 -5 -25 -7 -37 -3 -14 3 -23 1 -23 -6 0 -6 5 -11 10 -11
6 0 10 -5 10 -10 0 -21 -84 -50 -145 -50 -76 0 -113 -19 -40 -21 28 0 43 -3
35 -6 -8 -3 -17 -9 -20 -13 -3 -4 -22 -10 -43 -13 -29 -5 -37 -3 -37 10 0 10
-6 13 -16 9 -9 -3 -17 -6 -20 -6 -2 0 -10 -13 -19 -30 -13 -26 -13 -30 -1 -30
8 0 22 7 30 16 10 10 16 11 16 4 0 -8 9 -10 28 -6 15 4 35 7 45 7 9 0 17 7 17
15 0 8 9 14 19 14 11 0 23 5 26 10 3 6 17 10 31 10 13 0 24 5 24 11 0 6 8 9
18 7 9 -2 27 8 39 22 12 14 39 35 61 45 22 11 38 23 36 27 -7 11 -26 10 -44
-2z"/>
<path d="M3231 668 l2 -73 8 62 c4 35 11 67 14 73 3 5 -1 10 -9 10 -13 0 -16
-13 -15 -72z"/>
<path d="M3754 731 c-23 -4 -54 -16 -70 -26 l-29 -19 28 -10 c21 -8 39 -31 73
-96 25 -47 61 -103 81 -125 29 -31 33 -34 18 -10 -37 58 -105 180 -105 187 0
4 39 6 88 4 l87 -3 92 -139 c51 -76 118 -174 150 -217 32 -42 83 -121 113
-175 l56 -97 262 -2 c144 -1 262 0 262 3 0 16 -73 143 -85 147 -14 6 -18 -40
-4 -49 5 -3 9 -12 9 -20 0 -21 -33 -17 -48 7 -8 12 -9 18 -3 14 6 -3 11 1 11
9 0 13 -13 16 -69 16 -39 0 -73 -4 -76 -10 -3 -5 3 -29 14 -52 10 -24 17 -47
14 -51 -6 -9 -62 108 -63 129 0 7 -15 23 -34 37 -30 23 -66 73 -185 257 -20
30 -61 82 -91 115 -31 33 -71 81 -89 107 -21 30 -46 51 -65 57 -40 12 -288 20
-342 12z m786 -600 c0 -11 5 -23 10 -26 20 -12 10 -25 -19 -25 -34 0 -51 31
-31 55 18 21 40 18 40 -4z m163 -91 c6 -23 -12 -26 -45 -9 -17 9 -18 13 -7 20
24 15 46 10 52 -11z"/>
<path d="M4565 730 c3 -5 14 -10 23 -10 10 0 22 -13 29 -30 6 -16 16 -30 22
-30 16 0 14 15 -4 30 -12 10 -13 16 -3 28 11 13 10 15 -4 9 -10 -3 -20 -2 -23
3 -4 6 -15 10 -26 10 -11 0 -17 -4 -14 -10z"/>
<path d="M973 696 c-18 -17 -33 -37 -33 -44 0 -13 -51 -79 -100 -131 -52 -54
-148 -168 -180 -214 -19 -26 -39 -46 -46 -43 -7 3 -20 -2 -31 -9 -23 -18 -30
-18 -36 -1 -3 8 10 33 30 55 19 23 32 45 29 49 -8 7 -31 -19 -114 -128 -57
-75 -71 -90 -84 -90 -18 0 -5 26 32 67 35 37 87 130 78 138 -8 8 -119 -133
-146 -183 -17 -32 -52 -80 -77 -107 -25 -27 -45 -50 -45 -52 0 -2 111 -2 246
-1 l246 3 38 65 c21 36 47 74 57 85 10 11 30 38 44 60 14 22 48 70 75 106 27
36 74 101 104 144 30 43 71 99 91 124 l36 46 96 2 c115 3 118 -1 54 -79 -100
-125 -150 -203 -162 -256 -3 -17 -21 -44 -38 -59 -30 -26 -131 -153 -171 -215
l-18 -28 143 1 c96 0 136 3 122 9 -38 15 -18 42 24 34 46 -9 80 10 104 58 19
38 19 38 0 38 -11 0 -23 5 -26 10 -4 7 7 9 32 7 35 -4 38 -6 35 -32 -2 -15
-10 -45 -18 -67 -19 -55 -18 -58 19 -58 21 0 36 7 45 20 15 24 42 26 42 3 0
-32 18 2 49 93 34 99 39 130 17 99 -7 -11 -20 -47 -28 -80 -15 -60 -29 -74
-58 -56 -12 9 -11 14 8 34 14 15 20 30 16 40 -4 11 0 19 10 23 19 7 19 14 6
49 -10 26 -10 26 -40 8 -17 -10 -28 -23 -26 -30 7 -18 -25 -32 -49 -23 -45 17
-48 34 -17 103 28 61 61 97 89 97 7 0 20 -12 30 -26 16 -26 16 -27 -6 -46 -23
-18 -23 -19 -5 -33 22 -16 38 -5 40 28 2 28 13 55 34 87 10 14 23 42 30 64 10
32 10 40 -1 48 -15 9 -108 2 -145 -12 -33 -13 -37 0 -11 34 25 33 56 88 40 71
-5 -5 -24 -29 -42 -52 -18 -24 -40 -43 -49 -43 -9 0 -31 -14 -49 -32 -50 -48
-40 -12 12 43 25 26 53 65 62 86 9 21 28 50 42 65 18 21 21 28 10 32 -8 2 -34
11 -59 20 -36 12 -82 16 -210 15 l-165 -1 -32 -32z m482 -226 c6 -10 -16 -18
-60 -22 -33 -3 -58 8 -50 22 7 11 103 11 110 0z m-79 -93 c1 -9 -2 -15 -7 -11
-5 3 -9 1 -9 -4 0 -5 -9 -12 -21 -15 -12 -3 -18 -10 -15 -16 8 -12 -39 -91
-54 -91 -9 0 14 65 31 86 12 15 -9 23 -44 17 -39 -8 -44 19 -11 60 l27 35 50
-22 c29 -12 51 -29 53 -39z m132 48 c1 -5 -9 -11 -24 -13 -36 -5 -96 7 -89 17
7 12 109 8 113 -4z m-264 -254 c-19 -74 -27 -77 -20 -8 6 63 14 83 26 70 5 -4
2 -32 -6 -62z m-49 7 c33 -15 15 -28 -37 -28 -25 0 -38 5 -38 13 0 29 31 35
75 15z m-759 -154 c-22 -16 -36 -18 -36 -6 0 11 43 32 50 25 3 -3 -4 -11 -14
-19z m654 5 c-7 -11 -14 -18 -17 -15 -8 8 5 36 17 36 7 0 7 -6 0 -21z"/>
<path d="M2925 700 c-4 -6 7 -10 24 -10 17 0 31 5 31 10 0 6 -11 10 -24 10
-14 0 -28 -4 -31 -10z"/>
<path d="M1485 669 c-4 -6 -5 -12 -2 -15 2 -3 7 2 10 11 7 17 1 20 -8 4z"/>
<path d="M2834 639 c-10 -17 12 -32 35 -24 29 9 27 35 -3 35 -14 0 -28 -5 -32
-11z"/>
<path d="M2950 639 c0 -5 5 -7 10 -4 6 3 10 8 10 11 0 2 -4 4 -10 4 -5 0 -10
-5 -10 -11z"/>
<path d="M358 589 c-21 -24 -24 -31 -12 -36 15 -5 53 33 54 55 0 19 -13 14
-42 -19z"/>
<path d="M3916 597 c3 -10 9 -15 12 -12 3 3 0 11 -7 18 -10 9 -11 8 -5 -6z"/>
<path d="M772 510 c-12 -12 -22 -24 -22 -27 0 -4 11 4 25 17 23 22 29 30 22
30 -2 0 -13 -9 -25 -20z"/>
<path d="M3450 511 c0 -11 4 -22 9 -25 4 -3 6 6 3 19 -5 30 -12 33 -12 6z"/>
<path d="M3715 510 c7 -24 22 -40 38 -40 14 0 6 17 -19 41 l-26 24 7 -25z"/>
<path d="M1775 463 c-10 -21 -26 -63 -35 -93 -10 -30 -43 -126 -74 -213 -30
-87 -50 -157 -44 -155 7 3 16 17 21 34 9 28 53 134 82 199 8 17 18 50 24 74 5
24 14 48 20 54 6 6 11 21 11 33 0 12 13 36 30 54 31 33 31 50 1 50 -10 0 -25
-15 -36 -37z"/>
<path d="M3520 473 c6 -16 14 -37 19 -48 5 -11 13 -32 20 -47 13 -33 31 -35
90 -7 35 15 46 17 53 7 4 -7 8 -8 8 -3 0 12 61 55 78 55 10 0 62 -71 62 -85 0
-3 -18 -5 -40 -5 -31 0 -40 -4 -40 -17 0 -14 -6 -11 -24 12 -20 24 -27 27 -37
18 -10 -10 -9 -16 3 -30 8 -10 23 -40 33 -67 17 -43 17 -49 3 -57 -13 -7 -11
-16 13 -66 16 -32 33 -65 38 -73 5 -8 12 -23 15 -33 6 -18 8 -17 43 4 l36 22
23 -26 c22 -25 83 -40 69 -17 -3 5 -2 10 4 10 5 0 13 -4 16 -10 6 -10 155 -15
155 -5 0 3 -10 22 -23 43 -13 20 -36 63 -52 96 -20 39 -42 66 -66 82 -20 12
-49 38 -64 56 -27 32 -27 32 -10 3 10 -16 28 -41 40 -55 23 -26 75 -111 75
-124 0 -12 -109 115 -132 155 -13 21 -38 64 -57 96 -54 93 -82 127 -92 112
-10 -17 -99 -19 -99 -2 0 7 -7 13 -15 13 -8 0 -15 5 -15 10 0 6 -30 10 -70 10
l-70 0 10 -27z m108 -10 c-10 -2 -26 -2 -35 0 -10 3 -2 5 17 5 19 0 27 -2 18
-5z m62 -33 c0 -16 -48 -31 -78 -24 -54 12 -58 14 -42 24 20 13 120 13 120 0z
m100 -220 c0 -5 -2 -10 -4 -10 -3 0 -8 5 -11 10 -3 6 -1 10 4 10 6 0 11 -4 11
-10z m155 -40 c3 -5 -3 -10 -14 -10 -12 0 -21 5 -21 10 0 6 6 10 14 10 8 0 18
-4 21 -10z m-141 -15 c3 -8 1 -15 -4 -15 -6 0 -10 7 -10 15 0 8 2 15 4 15 2 0
6 -7 10 -15z m316 -139 c0 -12 -14 5 -31 39 -8 16 -6 15 10 -4 12 -13 21 -28
21 -35z"/>
<path d="M3980 493 c0 -6 8 -17 18 -24 16 -13 16 -13 2 6 -8 11 -16 22 -17 24
-2 2 -3 0 -3 -6z"/>
<path d="M3325 443 c7 -27 29 -95 50 -153 20 -58 51 -145 68 -195 35 -100 35
-101 43 -93 12 13 -153 488 -170 488 -3 0 2 -21 9 -47z"/>
<path d="M22 466 c-34 -17 -21 -30 30 -30 59 1 79 9 72 28 -5 12 -10 13 -26 3
-16 -9 -22 -9 -25 1 -5 14 -19 14 -51 -2z"/>
<path d="M1075 444 c-9 -15 -12 -23 -6 -20 11 7 35 46 28 46 -3 0 -12 -12 -22
-26z"/>
<path d="M147 453 c-13 -13 -7 -21 13 -16 11 3 20 9 20 14 0 10 -24 12 -33 2z"/>
<path d="M1651 444 c0 -11 3 -14 6 -6 3 7 2 16 -1 19 -3 4 -6 -2 -5 -13z"/>
<path d="M1850 435 c-7 -9 -10 -18 -7 -21 10 -11 37 5 37 21 0 19 -14 19 -30
0z"/>
<path d="M3471 424 c0 -11 3 -14 6 -6 3 7 2 16 -1 19 -3 4 -6 -2 -5 -13z"/>
<path d="M4464 408 c4 -13 10 -31 13 -40 7 -22 -10 -23 -43 -2 -23 16 -24 16
-18 -2 9 -22 49 -77 117 -157 l49 -57 61 0 62 0 -26 23 c-40 35 -142 157 -175
209 -31 51 -51 63 -40 26z m116 -201 c0 -6 -9 -2 -20 8 -11 10 -20 23 -20 28
0 6 9 2 20 -8 11 -10 20 -23 20 -28z"/>
<path d="M4530 413 c0 -4 9 -19 20 -33 11 -14 20 -33 20 -42 0 -18 129 -162
137 -154 8 8 -62 109 -121 174 -31 34 -56 59 -56 55z"/>
<path d="M3480 388 c0 -9 5 -20 10 -23 13 -8 13 5 0 25 -8 13 -10 13 -10 -2z"/>
<path d="M1806 348 c13 -24 14 -36 5 -50 -6 -10 -11 -24 -11 -32 0 -9 -10 -24
-22 -35 l-21 -21 29 -22 c16 -13 38 -23 49 -23 16 0 21 -8 23 -36 2 -21 -3
-42 -11 -50 -24 -25 -26 -46 -8 -63 17 -16 18 -14 24 32 3 27 14 65 24 84 18
36 64 63 80 47 10 -10 53 16 53 31 0 5 -9 6 -21 1 -29 -10 -109 3 -121 20 -7
11 -11 11 -15 2 -5 -14 -43 -18 -43 -5 0 4 6 27 14 51 14 47 49 73 60 45 4
-11 10 -12 25 -4 11 5 29 10 40 10 12 0 21 7 21 15 0 14 -33 21 -82 16 -10 -1
-18 3 -18 8 0 6 -20 11 -45 11 l-46 0 17 -32z"/>
<path d="M3500 345 c0 -5 5 -17 10 -25 5 -8 10 -10 10 -5 0 6 -5 17 -10 25 -5
8 -10 11 -10 5z"/>
<path d="M1556 315 c-3 -9 -6 -22 -5 -28 0 -7 5 -1 10 12 5 13 8 26 5 28 -2 2
-6 -3 -10 -12z"/>
<path d="M3580 321 c0 -6 5 -13 10 -16 6 -3 10 -14 10 -24 0 -10 9 -26 20 -36
22 -20 27 -7 10 26 -8 15 -7 23 5 35 21 22 19 24 -20 24 -19 0 -35 -4 -35 -9z"/>
<path d="M84 296 c-10 -7 -34 -17 -52 -21 -30 -6 -43 -27 -24 -39 13 -8 89 31
96 49 9 24 3 27 -20 11z"/>
<path d="M1770 290 c0 -5 5 -10 10 -10 6 0 10 5 10 10 0 6 -4 10 -10 10 -5 0
-10 -4 -10 -10z"/>
<path d="M1877 294 c-4 -4 -7 -14 -7 -23 0 -11 3 -12 11 -4 6 6 10 16 7 23 -2
6 -7 8 -11 4z"/>
<path d="M1747 243 c-4 -3 -7 -13 -7 -22 1 -13 3 -13 11 2 11 19 8 33 -4 20z"/>
<path d="M3550 218 c0 -17 23 -68 31 -68 5 0 2 15 -7 33 -18 34 -24 44 -24 35z"/>
<path d="M1024 186 c-20 -20 -114 -170 -114 -181 0 -20 23 5 55 60 21 36 42
65 46 65 8 0 49 62 49 74 0 11 -15 4 -36 -18z"/>
<path d="M3600 197 c0 -7 7 -23 16 -35 13 -20 14 -23 0 -28 -8 -3 -21 -2 -27
2 -9 5 -10 2 -6 -9 3 -8 9 -32 13 -52 6 -34 8 -35 43 -33 31 3 36 0 39 -20 3
-19 9 -22 54 -22 27 0 48 3 46 8 -28 55 -78 165 -78 173 0 12 -44 29 -76 29
-13 0 -24 -6 -24 -13z m48 -92 c16 -35 16 -35 -13 -35 -25 0 -31 13 -19 44 9
23 19 20 32 -9z"/>
<path d="M4089 193 c5 -10 34 -44 65 -75 34 -34 59 -69 62 -87 6 -29 9 -31 51
-31 25 0 43 4 41 8 -1 4 -25 43 -52 85 -41 63 -54 77 -75 77 -14 0 -39 9 -56
20 -37 25 -49 25 -36 3z"/>
<path d="M1732 181 c-15 -9 -62 -132 -62 -161 0 -16 7 -20 36 -20 l37 0 -7 50
c-6 46 -5 50 14 50 11 0 20 -5 20 -12 0 -9 3 -9 11 -1 30 30 -15 115 -49 94z"/>
<path d="M867 164 c-3 -3 -3 -13 0 -21 3 -8 -4 -21 -16 -29 -12 -9 -32 -37
-45 -63 l-22 -47 26 -2 c22 -2 33 6 55 40 15 24 43 62 62 86 l34 42 -44 0
c-24 0 -46 -3 -50 -6z"/>
<path d="M3244 104 c3 -9 6 -36 6 -60 0 -24 5 -44 10 -44 11 0 14 78 4 104 -3
9 -11 16 -16 16 -6 0 -7 -7 -4 -16z"/>
<path d="M3035 25 c-45 -16 -150 -19 -208 -6 -22 5 -39 5 -43 0 -3 -5 -9 -7
-14 -4 -4 3 -19 1 -32 -4 -15 -6 35 -9 150 -10 113 -1 171 3 167 9 -3 6 5 10
19 10 14 0 28 5 31 10 9 14 -23 12 -70 -5z"/>
<path d="M1265 15 l-30 -14 38 -1 c26 0 37 4 37 15 0 18 -5 18 -45 0z"/>
<path d="M2005 10 c3 -5 15 -10 26 -10 10 0 19 5 19 10 0 6 -12 10 -26 10 -14
0 -23 -4 -19 -10z"/>
<path d="M2080 9 c0 -5 26 -9 57 -9 31 0 54 3 50 6 -10 10 -107 13 -107 3z"/>
<path d="M2360 10 c-12 -8 -11 -10 8 -10 12 0 22 5 22 10 0 13 -11 13 -30 0z"/>
<path d="M2495 10 c-18 -8 -17 -9 8 -9 16 -1 26 3 22 9 -3 6 -7 10 -8 9 -1 0
-11 -4 -22 -9z"/>
<path d="M2545 10 c-3 -5 3 -10 14 -10 12 0 21 5 21 10 0 6 -6 10 -14 10 -8 0
-18 -4 -21 -10z"/>
<path d="M2620 10 c0 -5 5 -10 11 -10 5 0 7 5 4 10 -3 6 -8 10 -11 10 -2 0 -4
-4 -4 -10z"/>
<path d="M2680 10 c-12 -8 -11 -10 8 -10 12 0 22 5 22 10 0 13 -11 13 -30 0z"/>
<path d="M2433 3 c9 -2 23 -2 30 0 6 3 -1 5 -18 5 -16 0 -22 -2 -12 -5z"/>
</g>
</svg>
